<?xml version="1.0" encoding="utf-8" standalone="no"?>
<!DOCTYPE svg PUBLIC "-//W3C//DTD SVG 1.1//EN"
  "http://www.w3.org/Graphics/SVG/1.1/DTD/svg11.dtd">
<svg xmlns:xlink="http://www.w3.org/1999/xlink" width="739.8pt" height="347.04pt" viewBox="0 0 739.8 347.04" xmlns="http://www.w3.org/2000/svg" version="1.1">
 <metadata>
  <rdf:RDF xmlns:dc="http://purl.org/dc/elements/1.1/" xmlns:cc="http://creativecommons.org/ns#" xmlns:rdf="http://www.w3.org/1999/02/22-rdf-syntax-ns#">
   <cc:Work>
    <dc:type rdf:resource="http://purl.org/dc/dcmitype/StillImage"/>
    <dc:date>2026-08-10T12:23:22.762578</dc:date>
    <dc:format>image/svg+xml</dc:format>
    <dc:creator>
     <cc:Agent>
      <dc:title>Matplotlib v3.10.8, https://matplotlib.org/</dc:title>
     </cc:Agent>
    </dc:creator>
   </cc:Work>
  </rdf:RDF>
 </metadata>
 <defs>
  <style type="text/css">*{stroke-linejoin: round; stroke-linecap: butt}</style>
 </defs>
 <g id="figure_1">
  <g id="patch_1">
   <path d="M 0 347.04 
L 739.8 347.04 
L 739.8 -0 
L 0 -0 
z
" style="fill: #f2efe7"/>
  </g>
  <g id="axes_1">
   <g id="patch_2">
    <path d="M 29.52 289.4688 
L 177.39 289.4688 
Q 179.622 289.4688 179.622 287.568 
L 179.622 87.984 
Q 179.622 86.0832 177.39 86.0832 
L 29.52 86.0832 
Q 27.288 86.0832 27.288 87.984 
L 27.288 287.568 
Q 27.288 289.4688 29.52 289.4688 
z
" clip-path="url(#paf86e8a3b3)" style="fill: #f2efe7; stroke: #11110f; stroke-width: 1.1; stroke-linejoin: miter"/>
   </g>
   <g id="patch_3">
    <path d="M 205.29 289.4688 
L 353.16 289.4688 
Q 355.392 289.4688 355.392 287.568 
L 355.392 87.984 
Q 355.392 86.0832 353.16 86.0832 
L 205.29 86.0832 
Q 203.058 86.0832 203.058 87.984 
L 203.058 287.568 
Q 203.058 289.4688 205.29 289.4688 
z
" clip-path="url(#paf86e8a3b3)" style="fill: #f2efe7; stroke: #11110f; stroke-width: 1.1; stroke-linejoin: miter"/>
   </g>
   <g id="patch_4">
    <path d="M 381.06 289.4688 
L 528.93 289.4688 
Q 531.162 289.4688 531.162 287.568 
L 531.162 87.984 
Q 531.162 86.0832 528.93 86.0832 
L 381.06 86.0832 
Q 378.828 86.0832 378.828 87.984 
L 378.828 287.568 
Q 378.828 289.4688 381.06 289.4688 
z
" clip-path="url(#paf86e8a3b3)" style="fill: #f2efe7; stroke: #11110f; stroke-width: 1.1; stroke-linejoin: miter"/>
   </g>
   <g id="patch_5">
    <path d="M 556.83 289.4688 
L 704.7 289.4688 
Q 706.932 289.4688 706.932 287.568 
L 706.932 87.984 
Q 706.932 86.0832 704.7 86.0832 
L 556.83 86.0832 
Q 554.598 86.0832 554.598 87.984 
L 554.598 287.568 
Q 554.598 289.4688 556.83 289.4688 
z
" clip-path="url(#paf86e8a3b3)" style="fill: #f2efe7; stroke: #11110f; stroke-width: 1.1; stroke-linejoin: miter"/>
   </g>
   <g id="text_1">
    <!-- FIGURE 02 / SAME MANIPULATION, DIFFERENT AUTHORITY -->
    <g style="fill: #11110f" transform="translate(18.36 28.584) scale(0.17 -0.17)">
     <defs>
      <path id="DejaVuSans-Bold-46" d="M 588 4666 
L 3834 4666 
L 3834 3756 
L 1791 3756 
L 1791 2888 
L 3713 2888 
L 3713 1978 
L 1791 1978 
L 1791 0 
L 588 0 
L 588 4666 
z
" transform="scale(0.015625)"/>
      <path id="DejaVuSans-Bold-49" d="M 588 4666 
L 1791 4666 
L 1791 0 
L 588 0 
L 588 4666 
z
" transform="scale(0.015625)"/>
      <path id="DejaVuSans-Bold-47" d="M 4781 347 
Q 4331 128 3847 18 
Q 3363 -91 2847 -91 
Q 1681 -91 1000 561 
Q 319 1213 319 2328 
Q 319 3456 1012 4103 
Q 1706 4750 2913 4750 
Q 3378 4750 3804 4662 
Q 4231 4575 4609 4403 
L 4609 3438 
Q 4219 3659 3833 3768 
Q 3447 3878 3059 3878 
Q 2341 3878 1952 3476 
Q 1563 3075 1563 2328 
Q 1563 1588 1938 1184 
Q 2313 781 3003 781 
Q 3191 781 3352 804 
Q 3513 828 3641 878 
L 3641 1784 
L 2906 1784 
L 2906 2591 
L 4781 2591 
L 4781 347 
z
" transform="scale(0.015625)"/>
      <path id="DejaVuSans-Bold-55" d="M 588 4666 
L 1791 4666 
L 1791 1869 
Q 1791 1291 1980 1042 
Q 2169 794 2597 794 
Q 3028 794 3217 1042 
Q 3406 1291 3406 1869 
L 3406 4666 
L 4609 4666 
L 4609 1869 
Q 4609 878 4112 393 
Q 3616 -91 2597 -91 
Q 1581 -91 1084 393 
Q 588 878 588 1869 
L 588 4666 
z
" transform="scale(0.015625)"/>
      <path id="DejaVuSans-Bold-52" d="M 2297 2597 
Q 2675 2597 2839 2737 
Q 3003 2878 3003 3200 
Q 3003 3519 2839 3656 
Q 2675 3794 2297 3794 
L 1791 3794 
L 1791 2597 
L 2297 2597 
z
M 1791 1766 
L 1791 0 
L 588 0 
L 588 4666 
L 2425 4666 
Q 3347 4666 3776 4356 
Q 4206 4047 4206 3378 
Q 4206 2916 3982 2619 
Q 3759 2322 3309 2181 
Q 3556 2125 3751 1926 
Q 3947 1728 4147 1325 
L 4800 0 
L 3519 0 
L 2950 1159 
Q 2778 1509 2601 1637 
Q 2425 1766 2131 1766 
L 1791 1766 
z
" transform="scale(0.015625)"/>
      <path id="DejaVuSans-Bold-45" d="M 588 4666 
L 3834 4666 
L 3834 3756 
L 1791 3756 
L 1791 2888 
L 3713 2888 
L 3713 1978 
L 1791 1978 
L 1791 909 
L 3903 909 
L 3903 0 
L 588 0 
L 588 4666 
z
" transform="scale(0.015625)"/>
      <path id="DejaVuSans-Bold-20" transform="scale(0.015625)"/>
      <path id="DejaVuSans-Bold-30" d="M 2944 2338 
Q 2944 3213 2780 3570 
Q 2616 3928 2228 3928 
Q 1841 3928 1675 3570 
Q 1509 3213 1509 2338 
Q 1509 1453 1675 1090 
Q 1841 728 2228 728 
Q 2613 728 2778 1090 
Q 2944 1453 2944 2338 
z
M 4147 2328 
Q 4147 1169 3647 539 
Q 3147 -91 2228 -91 
Q 1306 -91 806 539 
Q 306 1169 306 2328 
Q 306 3491 806 4120 
Q 1306 4750 2228 4750 
Q 3147 4750 3647 4120 
Q 4147 3491 4147 2328 
z
" transform="scale(0.015625)"/>
      <path id="DejaVuSans-Bold-32" d="M 1844 884 
L 3897 884 
L 3897 0 
L 506 0 
L 506 884 
L 2209 2388 
Q 2438 2594 2547 2791 
Q 2656 2988 2656 3200 
Q 2656 3528 2436 3728 
Q 2216 3928 1850 3928 
Q 1569 3928 1234 3808 
Q 900 3688 519 3450 
L 519 4475 
Q 925 4609 1322 4679 
Q 1719 4750 2100 4750 
Q 2938 4750 3402 4381 
Q 3866 4013 3866 3353 
Q 3866 2972 3669 2642 
Q 3472 2313 2841 1759 
L 1844 884 
z
" transform="scale(0.015625)"/>
      <path id="DejaVuSans-Bold-2f" d="M 1644 4666 
L 2338 4666 
L 691 -594 
L 0 -594 
L 1644 4666 
z
" transform="scale(0.015625)"/>
      <path id="DejaVuSans-Bold-53" d="M 3834 4519 
L 3834 3531 
Q 3450 3703 3084 3790 
Q 2719 3878 2394 3878 
Q 1963 3878 1756 3759 
Q 1550 3641 1550 3391 
Q 1550 3203 1689 3098 
Q 1828 2994 2194 2919 
L 2706 2816 
Q 3484 2659 3812 2340 
Q 4141 2022 4141 1434 
Q 4141 663 3683 286 
Q 3225 -91 2284 -91 
Q 1841 -91 1394 -6 
Q 947 78 500 244 
L 500 1259 
Q 947 1022 1364 901 
Q 1781 781 2169 781 
Q 2563 781 2772 912 
Q 2981 1044 2981 1288 
Q 2981 1506 2839 1625 
Q 2697 1744 2272 1838 
L 1806 1941 
Q 1106 2091 782 2419 
Q 459 2747 459 3303 
Q 459 4000 909 4375 
Q 1359 4750 2203 4750 
Q 2588 4750 2994 4692 
Q 3400 4634 3834 4519 
z
" transform="scale(0.015625)"/>
      <path id="DejaVuSans-Bold-41" d="M 3419 850 
L 1538 850 
L 1241 0 
L 31 0 
L 1759 4666 
L 3194 4666 
L 4922 0 
L 3713 0 
L 3419 850 
z
M 1838 1716 
L 3116 1716 
L 2478 3572 
L 1838 1716 
z
" transform="scale(0.015625)"/>
      <path id="DejaVuSans-Bold-4d" d="M 588 4666 
L 2119 4666 
L 3181 2169 
L 4250 4666 
L 5778 4666 
L 5778 0 
L 4641 0 
L 4641 3413 
L 3566 897 
L 2803 897 
L 1728 3413 
L 1728 0 
L 588 0 
L 588 4666 
z
" transform="scale(0.015625)"/>
      <path id="DejaVuSans-Bold-4e" d="M 588 4666 
L 1931 4666 
L 3628 1466 
L 3628 4666 
L 4769 4666 
L 4769 0 
L 3425 0 
L 1728 3200 
L 1728 0 
L 588 0 
L 588 4666 
z
" transform="scale(0.015625)"/>
      <path id="DejaVuSans-Bold-50" d="M 588 4666 
L 2584 4666 
Q 3475 4666 3951 4270 
Q 4428 3875 4428 3144 
Q 4428 2409 3951 2014 
Q 3475 1619 2584 1619 
L 1791 1619 
L 1791 0 
L 588 0 
L 588 4666 
z
M 1791 3794 
L 1791 2491 
L 2456 2491 
Q 2806 2491 2997 2661 
Q 3188 2831 3188 3144 
Q 3188 3456 2997 3625 
Q 2806 3794 2456 3794 
L 1791 3794 
z
" transform="scale(0.015625)"/>
      <path id="DejaVuSans-Bold-4c" d="M 588 4666 
L 1791 4666 
L 1791 909 
L 3903 909 
L 3903 0 
L 588 0 
L 588 4666 
z
" transform="scale(0.015625)"/>
      <path id="DejaVuSans-Bold-54" d="M 31 4666 
L 4331 4666 
L 4331 3756 
L 2784 3756 
L 2784 0 
L 1581 0 
L 1581 3756 
L 31 3756 
L 31 4666 
z
" transform="scale(0.015625)"/>
      <path id="DejaVuSans-Bold-4f" d="M 2719 3878 
Q 2169 3878 1866 3472 
Q 1563 3066 1563 2328 
Q 1563 1594 1866 1187 
Q 2169 781 2719 781 
Q 3272 781 3575 1187 
Q 3878 1594 3878 2328 
Q 3878 3066 3575 3472 
Q 3272 3878 2719 3878 
z
M 2719 4750 
Q 3844 4750 4481 4106 
Q 5119 3463 5119 2328 
Q 5119 1197 4481 553 
Q 3844 -91 2719 -91 
Q 1597 -91 958 553 
Q 319 1197 319 2328 
Q 319 3463 958 4106 
Q 1597 4750 2719 4750 
z
" transform="scale(0.015625)"/>
      <path id="DejaVuSans-Bold-2c" d="M 653 1209 
L 1778 1209 
L 1778 256 
L 1006 -909 
L 341 -909 
L 653 256 
L 653 1209 
z
" transform="scale(0.015625)"/>
      <path id="DejaVuSans-Bold-44" d="M 1791 3756 
L 1791 909 
L 2222 909 
Q 2959 909 3348 1275 
Q 3738 1641 3738 2338 
Q 3738 3031 3350 3393 
Q 2963 3756 2222 3756 
L 1791 3756 
z
M 588 4666 
L 1856 4666 
Q 2919 4666 3439 4514 
Q 3959 4363 4331 4000 
Q 4659 3684 4818 3271 
Q 4978 2859 4978 2338 
Q 4978 1809 4818 1395 
Q 4659 981 4331 666 
Q 3956 303 3431 151 
Q 2906 0 1856 0 
L 588 0 
L 588 4666 
z
" transform="scale(0.015625)"/>
      <path id="DejaVuSans-Bold-48" d="M 588 4666 
L 1791 4666 
L 1791 2888 
L 3566 2888 
L 3566 4666 
L 4769 4666 
L 4769 0 
L 3566 0 
L 3566 1978 
L 1791 1978 
L 1791 0 
L 588 0 
L 588 4666 
z
" transform="scale(0.015625)"/>
      <path id="DejaVuSans-Bold-59" d="M -63 4666 
L 1253 4666 
L 2316 3003 
L 3378 4666 
L 4697 4666 
L 2919 1966 
L 2919 0 
L 1716 0 
L 1716 1966 
L -63 4666 
z
" transform="scale(0.015625)"/>
     </defs>
     <use xlink:href="#DejaVuSans-Bold-46"/>
     <use xlink:href="#DejaVuSans-Bold-49" transform="translate(68.310547 0)"/>
     <use xlink:href="#DejaVuSans-Bold-47" transform="translate(105.517578 0)"/>
     <use xlink:href="#DejaVuSans-Bold-55" transform="translate(187.597656 0)"/>
     <use xlink:href="#DejaVuSans-Bold-52" transform="translate(268.798828 0)"/>
     <use xlink:href="#DejaVuSans-Bold-45" transform="translate(345.800781 0)"/>
     <use xlink:href="#DejaVuSans-Bold-20" transform="translate(414.111328 0)"/>
     <use xlink:href="#DejaVuSans-Bold-30" transform="translate(448.925781 0)"/>
     <use xlink:href="#DejaVuSans-Bold-32" transform="translate(518.505859 0)"/>
     <use xlink:href="#DejaVuSans-Bold-20" transform="translate(588.085938 0)"/>
     <use xlink:href="#DejaVuSans-Bold-2f" transform="translate(622.900391 0)"/>
     <use xlink:href="#DejaVuSans-Bold-20" transform="translate(659.423828 0)"/>
     <use xlink:href="#DejaVuSans-Bold-53" transform="translate(694.238281 0)"/>
     <use xlink:href="#DejaVuSans-Bold-41" transform="translate(766.259766 0)"/>
     <use xlink:href="#DejaVuSans-Bold-4d" transform="translate(843.652344 0)"/>
     <use xlink:href="#DejaVuSans-Bold-45" transform="translate(943.164062 0)"/>
     <use xlink:href="#DejaVuSans-Bold-20" transform="translate(1011.474609 0)"/>
     <use xlink:href="#DejaVuSans-Bold-4d" transform="translate(1046.289062 0)"/>
     <use xlink:href="#DejaVuSans-Bold-41" transform="translate(1145.800781 0)"/>
     <use xlink:href="#DejaVuSans-Bold-4e" transform="translate(1223.193359 0)"/>
     <use xlink:href="#DejaVuSans-Bold-49" transform="translate(1306.884766 0)"/>
     <use xlink:href="#DejaVuSans-Bold-50" transform="translate(1344.091797 0)"/>
     <use xlink:href="#DejaVuSans-Bold-55" transform="translate(1417.382812 0)"/>
     <use xlink:href="#DejaVuSans-Bold-4c" transform="translate(1498.583984 0)"/>
     <use xlink:href="#DejaVuSans-Bold-41" transform="translate(1562.304688 0)"/>
     <use xlink:href="#DejaVuSans-Bold-54" transform="translate(1631.947266 0)"/>
     <use xlink:href="#DejaVuSans-Bold-49" transform="translate(1700.160156 0)"/>
     <use xlink:href="#DejaVuSans-Bold-4f" transform="translate(1737.367188 0)"/>
     <use xlink:href="#DejaVuSans-Bold-4e" transform="translate(1822.376953 0)"/>
     <use xlink:href="#DejaVuSans-Bold-2c" transform="translate(1906.068359 0)"/>
     <use xlink:href="#DejaVuSans-Bold-20" transform="translate(1944.056641 0)"/>
     <use xlink:href="#DejaVuSans-Bold-44" transform="translate(1978.871094 0)"/>
     <use xlink:href="#DejaVuSans-Bold-49" transform="translate(2061.878906 0)"/>
     <use xlink:href="#DejaVuSans-Bold-46" transform="translate(2099.085938 0)"/>
     <use xlink:href="#DejaVuSans-Bold-46" transform="translate(2167.396484 0)"/>
     <use xlink:href="#DejaVuSans-Bold-45" transform="translate(2235.707031 0)"/>
     <use xlink:href="#DejaVuSans-Bold-52" transform="translate(2304.017578 0)"/>
     <use xlink:href="#DejaVuSans-Bold-45" transform="translate(2381.019531 0)"/>
     <use xlink:href="#DejaVuSans-Bold-4e" transform="translate(2449.330078 0)"/>
     <use xlink:href="#DejaVuSans-Bold-54" transform="translate(2533.021484 0)"/>
     <use xlink:href="#DejaVuSans-Bold-20" transform="translate(2601.234375 0)"/>
     <use xlink:href="#DejaVuSans-Bold-41" transform="translate(2636.048828 0)"/>
     <use xlink:href="#DejaVuSans-Bold-55" transform="translate(2710.316406 0)"/>
     <use xlink:href="#DejaVuSans-Bold-54" transform="translate(2791.517578 0)"/>
     <use xlink:href="#DejaVuSans-Bold-48" transform="translate(2859.730469 0)"/>
     <use xlink:href="#DejaVuSans-Bold-4f" transform="translate(2943.421875 0)"/>
     <use xlink:href="#DejaVuSans-Bold-52" transform="translate(3028.431641 0)"/>
     <use xlink:href="#DejaVuSans-Bold-49" transform="translate(3105.433594 0)"/>
     <use xlink:href="#DejaVuSans-Bold-54" transform="translate(3142.640625 0)"/>
     <use xlink:href="#DejaVuSans-Bold-59" transform="translate(3210.853516 0)"/>
    </g>
   </g>
   <g id="text_2">
    <!-- Same manipulated-model assumption. The reachable consequence set changes with delegated authority. -->
    <g style="fill: #5a5953" transform="translate(18.36 49.0176) scale(0.105 -0.105)">
     <defs>
      <path id="DejaVuSans-53" d="M 3425 4513 
L 3425 3897 
Q 3066 4069 2747 4153 
Q 2428 4238 2131 4238 
Q 1616 4238 1336 4038 
Q 1056 3838 1056 3469 
Q 1056 3159 1242 3001 
Q 1428 2844 1947 2747 
L 2328 2669 
Q 3034 2534 3370 2195 
Q 3706 1856 3706 1288 
Q 3706 609 3251 259 
Q 2797 -91 1919 -91 
Q 1588 -91 1214 -16 
Q 841 59 441 206 
L 441 856 
Q 825 641 1194 531 
Q 1563 422 1919 422 
Q 2459 422 2753 634 
Q 3047 847 3047 1241 
Q 3047 1584 2836 1778 
Q 2625 1972 2144 2069 
L 1759 2144 
Q 1053 2284 737 2584 
Q 422 2884 422 3419 
Q 422 4038 858 4394 
Q 1294 4750 2059 4750 
Q 2388 4750 2728 4690 
Q 3069 4631 3425 4513 
z
" transform="scale(0.015625)"/>
      <path id="DejaVuSans-61" d="M 2194 1759 
Q 1497 1759 1228 1600 
Q 959 1441 959 1056 
Q 959 750 1161 570 
Q 1363 391 1709 391 
Q 2188 391 2477 730 
Q 2766 1069 2766 1631 
L 2766 1759 
L 2194 1759 
z
M 3341 1997 
L 3341 0 
L 2766 0 
L 2766 531 
Q 2569 213 2275 61 
Q 1981 -91 1556 -91 
Q 1019 -91 701 211 
Q 384 513 384 1019 
Q 384 1609 779 1909 
Q 1175 2209 1959 2209 
L 2766 2209 
L 2766 2266 
Q 2766 2663 2505 2880 
Q 2244 3097 1772 3097 
Q 1472 3097 1187 3025 
Q 903 2953 641 2809 
L 641 3341 
Q 956 3463 1253 3523 
Q 1550 3584 1831 3584 
Q 2591 3584 2966 3190 
Q 3341 2797 3341 1997 
z
" transform="scale(0.015625)"/>
      <path id="DejaVuSans-6d" d="M 3328 2828 
Q 3544 3216 3844 3400 
Q 4144 3584 4550 3584 
Q 5097 3584 5394 3201 
Q 5691 2819 5691 2113 
L 5691 0 
L 5113 0 
L 5113 2094 
Q 5113 2597 4934 2840 
Q 4756 3084 4391 3084 
Q 3944 3084 3684 2787 
Q 3425 2491 3425 1978 
L 3425 0 
L 2847 0 
L 2847 2094 
Q 2847 2600 2669 2842 
Q 2491 3084 2119 3084 
Q 1678 3084 1418 2786 
Q 1159 2488 1159 1978 
L 1159 0 
L 581 0 
L 581 3500 
L 1159 3500 
L 1159 2956 
Q 1356 3278 1631 3431 
Q 1906 3584 2284 3584 
Q 2666 3584 2933 3390 
Q 3200 3197 3328 2828 
z
" transform="scale(0.015625)"/>
      <path id="DejaVuSans-65" d="M 3597 1894 
L 3597 1613 
L 953 1613 
Q 991 1019 1311 708 
Q 1631 397 2203 397 
Q 2534 397 2845 478 
Q 3156 559 3463 722 
L 3463 178 
Q 3153 47 2828 -22 
Q 2503 -91 2169 -91 
Q 1331 -91 842 396 
Q 353 884 353 1716 
Q 353 2575 817 3079 
Q 1281 3584 2069 3584 
Q 2775 3584 3186 3129 
Q 3597 2675 3597 1894 
z
M 3022 2063 
Q 3016 2534 2758 2815 
Q 2500 3097 2075 3097 
Q 1594 3097 1305 2825 
Q 1016 2553 972 2059 
L 3022 2063 
z
" transform="scale(0.015625)"/>
      <path id="DejaVuSans-20" transform="scale(0.015625)"/>
      <path id="DejaVuSans-6e" d="M 3513 2113 
L 3513 0 
L 2938 0 
L 2938 2094 
Q 2938 2591 2744 2837 
Q 2550 3084 2163 3084 
Q 1697 3084 1428 2787 
Q 1159 2491 1159 1978 
L 1159 0 
L 581 0 
L 581 3500 
L 1159 3500 
L 1159 2956 
Q 1366 3272 1645 3428 
Q 1925 3584 2291 3584 
Q 2894 3584 3203 3211 
Q 3513 2838 3513 2113 
z
" transform="scale(0.015625)"/>
      <path id="DejaVuSans-69" d="M 603 3500 
L 1178 3500 
L 1178 0 
L 603 0 
L 603 3500 
z
M 603 4863 
L 1178 4863 
L 1178 4134 
L 603 4134 
L 603 4863 
z
" transform="scale(0.015625)"/>
      <path id="DejaVuSans-70" d="M 1159 525 
L 1159 -1331 
L 581 -1331 
L 581 3500 
L 1159 3500 
L 1159 2969 
Q 1341 3281 1617 3432 
Q 1894 3584 2278 3584 
Q 2916 3584 3314 3078 
Q 3713 2572 3713 1747 
Q 3713 922 3314 415 
Q 2916 -91 2278 -91 
Q 1894 -91 1617 61 
Q 1341 213 1159 525 
z
M 3116 1747 
Q 3116 2381 2855 2742 
Q 2594 3103 2138 3103 
Q 1681 3103 1420 2742 
Q 1159 2381 1159 1747 
Q 1159 1113 1420 752 
Q 1681 391 2138 391 
Q 2594 391 2855 752 
Q 3116 1113 3116 1747 
z
" transform="scale(0.015625)"/>
      <path id="DejaVuSans-75" d="M 544 1381 
L 544 3500 
L 1119 3500 
L 1119 1403 
Q 1119 906 1312 657 
Q 1506 409 1894 409 
Q 2359 409 2629 706 
Q 2900 1003 2900 1516 
L 2900 3500 
L 3475 3500 
L 3475 0 
L 2900 0 
L 2900 538 
Q 2691 219 2414 64 
Q 2138 -91 1772 -91 
Q 1169 -91 856 284 
Q 544 659 544 1381 
z
M 1991 3584 
L 1991 3584 
z
" transform="scale(0.015625)"/>
      <path id="DejaVuSans-6c" d="M 603 4863 
L 1178 4863 
L 1178 0 
L 603 0 
L 603 4863 
z
" transform="scale(0.015625)"/>
      <path id="DejaVuSans-74" d="M 1172 4494 
L 1172 3500 
L 2356 3500 
L 2356 3053 
L 1172 3053 
L 1172 1153 
Q 1172 725 1289 603 
Q 1406 481 1766 481 
L 2356 481 
L 2356 0 
L 1766 0 
Q 1100 0 847 248 
Q 594 497 594 1153 
L 594 3053 
L 172 3053 
L 172 3500 
L 594 3500 
L 594 4494 
L 1172 4494 
z
" transform="scale(0.015625)"/>
      <path id="DejaVuSans-64" d="M 2906 2969 
L 2906 4863 
L 3481 4863 
L 3481 0 
L 2906 0 
L 2906 525 
Q 2725 213 2448 61 
Q 2172 -91 1784 -91 
Q 1150 -91 751 415 
Q 353 922 353 1747 
Q 353 2572 751 3078 
Q 1150 3584 1784 3584 
Q 2172 3584 2448 3432 
Q 2725 3281 2906 2969 
z
M 947 1747 
Q 947 1113 1208 752 
Q 1469 391 1925 391 
Q 2381 391 2643 752 
Q 2906 1113 2906 1747 
Q 2906 2381 2643 2742 
Q 2381 3103 1925 3103 
Q 1469 3103 1208 2742 
Q 947 2381 947 1747 
z
" transform="scale(0.015625)"/>
      <path id="DejaVuSans-2d" d="M 313 2009 
L 1997 2009 
L 1997 1497 
L 313 1497 
L 313 2009 
z
" transform="scale(0.015625)"/>
      <path id="DejaVuSans-6f" d="M 1959 3097 
Q 1497 3097 1228 2736 
Q 959 2375 959 1747 
Q 959 1119 1226 758 
Q 1494 397 1959 397 
Q 2419 397 2687 759 
Q 2956 1122 2956 1747 
Q 2956 2369 2687 2733 
Q 2419 3097 1959 3097 
z
M 1959 3584 
Q 2709 3584 3137 3096 
Q 3566 2609 3566 1747 
Q 3566 888 3137 398 
Q 2709 -91 1959 -91 
Q 1206 -91 779 398 
Q 353 888 353 1747 
Q 353 2609 779 3096 
Q 1206 3584 1959 3584 
z
" transform="scale(0.015625)"/>
      <path id="DejaVuSans-73" d="M 2834 3397 
L 2834 2853 
Q 2591 2978 2328 3040 
Q 2066 3103 1784 3103 
Q 1356 3103 1142 2972 
Q 928 2841 928 2578 
Q 928 2378 1081 2264 
Q 1234 2150 1697 2047 
L 1894 2003 
Q 2506 1872 2764 1633 
Q 3022 1394 3022 966 
Q 3022 478 2636 193 
Q 2250 -91 1575 -91 
Q 1294 -91 989 -36 
Q 684 19 347 128 
L 347 722 
Q 666 556 975 473 
Q 1284 391 1588 391 
Q 1994 391 2212 530 
Q 2431 669 2431 922 
Q 2431 1156 2273 1281 
Q 2116 1406 1581 1522 
L 1381 1569 
Q 847 1681 609 1914 
Q 372 2147 372 2553 
Q 372 3047 722 3315 
Q 1072 3584 1716 3584 
Q 2034 3584 2315 3537 
Q 2597 3491 2834 3397 
z
" transform="scale(0.015625)"/>
      <path id="DejaVuSans-2e" d="M 684 794 
L 1344 794 
L 1344 0 
L 684 0 
L 684 794 
z
" transform="scale(0.015625)"/>
      <path id="DejaVuSans-54" d="M -19 4666 
L 3928 4666 
L 3928 4134 
L 2272 4134 
L 2272 0 
L 1638 0 
L 1638 4134 
L -19 4134 
L -19 4666 
z
" transform="scale(0.015625)"/>
      <path id="DejaVuSans-68" d="M 3513 2113 
L 3513 0 
L 2938 0 
L 2938 2094 
Q 2938 2591 2744 2837 
Q 2550 3084 2163 3084 
Q 1697 3084 1428 2787 
Q 1159 2491 1159 1978 
L 1159 0 
L 581 0 
L 581 4863 
L 1159 4863 
L 1159 2956 
Q 1366 3272 1645 3428 
Q 1925 3584 2291 3584 
Q 2894 3584 3203 3211 
Q 3513 2838 3513 2113 
z
" transform="scale(0.015625)"/>
      <path id="DejaVuSans-72" d="M 2631 2963 
Q 2534 3019 2420 3045 
Q 2306 3072 2169 3072 
Q 1681 3072 1420 2755 
Q 1159 2438 1159 1844 
L 1159 0 
L 581 0 
L 581 3500 
L 1159 3500 
L 1159 2956 
Q 1341 3275 1631 3429 
Q 1922 3584 2338 3584 
Q 2397 3584 2469 3576 
Q 2541 3569 2628 3553 
L 2631 2963 
z
" transform="scale(0.015625)"/>
      <path id="DejaVuSans-63" d="M 3122 3366 
L 3122 2828 
Q 2878 2963 2633 3030 
Q 2388 3097 2138 3097 
Q 1578 3097 1268 2742 
Q 959 2388 959 1747 
Q 959 1106 1268 751 
Q 1578 397 2138 397 
Q 2388 397 2633 464 
Q 2878 531 3122 666 
L 3122 134 
Q 2881 22 2623 -34 
Q 2366 -91 2075 -91 
Q 1284 -91 818 406 
Q 353 903 353 1747 
Q 353 2603 823 3093 
Q 1294 3584 2113 3584 
Q 2378 3584 2631 3529 
Q 2884 3475 3122 3366 
z
" transform="scale(0.015625)"/>
      <path id="DejaVuSans-62" d="M 3116 1747 
Q 3116 2381 2855 2742 
Q 2594 3103 2138 3103 
Q 1681 3103 1420 2742 
Q 1159 2381 1159 1747 
Q 1159 1113 1420 752 
Q 1681 391 2138 391 
Q 2594 391 2855 752 
Q 3116 1113 3116 1747 
z
M 1159 2969 
Q 1341 3281 1617 3432 
Q 1894 3584 2278 3584 
Q 2916 3584 3314 3078 
Q 3713 2572 3713 1747 
Q 3713 922 3314 415 
Q 2916 -91 2278 -91 
Q 1894 -91 1617 61 
Q 1341 213 1159 525 
L 1159 0 
L 581 0 
L 581 4863 
L 1159 4863 
L 1159 2969 
z
" transform="scale(0.015625)"/>
      <path id="DejaVuSans-71" d="M 947 1747 
Q 947 1113 1208 752 
Q 1469 391 1925 391 
Q 2381 391 2643 752 
Q 2906 1113 2906 1747 
Q 2906 2381 2643 2742 
Q 2381 3103 1925 3103 
Q 1469 3103 1208 2742 
Q 947 2381 947 1747 
z
M 2906 525 
Q 2725 213 2448 61 
Q 2172 -91 1784 -91 
Q 1150 -91 751 415 
Q 353 922 353 1747 
Q 353 2572 751 3078 
Q 1150 3584 1784 3584 
Q 2172 3584 2448 3432 
Q 2725 3281 2906 2969 
L 2906 3500 
L 3481 3500 
L 3481 -1331 
L 2906 -1331 
L 2906 525 
z
" transform="scale(0.015625)"/>
      <path id="DejaVuSans-67" d="M 2906 1791 
Q 2906 2416 2648 2759 
Q 2391 3103 1925 3103 
Q 1463 3103 1205 2759 
Q 947 2416 947 1791 
Q 947 1169 1205 825 
Q 1463 481 1925 481 
Q 2391 481 2648 825 
Q 2906 1169 2906 1791 
z
M 3481 434 
Q 3481 -459 3084 -895 
Q 2688 -1331 1869 -1331 
Q 1566 -1331 1297 -1286 
Q 1028 -1241 775 -1147 
L 775 -588 
Q 1028 -725 1275 -790 
Q 1522 -856 1778 -856 
Q 2344 -856 2625 -561 
Q 2906 -266 2906 331 
L 2906 616 
Q 2728 306 2450 153 
Q 2172 0 1784 0 
Q 1141 0 747 490 
Q 353 981 353 1791 
Q 353 2603 747 3093 
Q 1141 3584 1784 3584 
Q 2172 3584 2450 3431 
Q 2728 3278 2906 2969 
L 2906 3500 
L 3481 3500 
L 3481 434 
z
" transform="scale(0.015625)"/>
      <path id="DejaVuSans-77" d="M 269 3500 
L 844 3500 
L 1563 769 
L 2278 3500 
L 2956 3500 
L 3675 769 
L 4391 3500 
L 4966 3500 
L 4050 0 
L 3372 0 
L 2619 2869 
L 1863 0 
L 1184 0 
L 269 3500 
z
" transform="scale(0.015625)"/>
      <path id="DejaVuSans-79" d="M 2059 -325 
Q 1816 -950 1584 -1140 
Q 1353 -1331 966 -1331 
L 506 -1331 
L 506 -850 
L 844 -850 
Q 1081 -850 1212 -737 
Q 1344 -625 1503 -206 
L 1606 56 
L 191 3500 
L 800 3500 
L 1894 763 
L 2988 3500 
L 3597 3500 
L 2059 -325 
z
" transform="scale(0.015625)"/>
     </defs>
     <use xlink:href="#DejaVuSans-53"/>
     <use xlink:href="#DejaVuSans-61" transform="translate(63.476562 0)"/>
     <use xlink:href="#DejaVuSans-6d" transform="translate(124.755859 0)"/>
     <use xlink:href="#DejaVuSans-65" transform="translate(222.167969 0)"/>
     <use xlink:href="#DejaVuSans-20" transform="translate(283.691406 0)"/>
     <use xlink:href="#DejaVuSans-6d" transform="translate(315.478516 0)"/>
     <use xlink:href="#DejaVuSans-61" transform="translate(412.890625 0)"/>
     <use xlink:href="#DejaVuSans-6e" transform="translate(474.169922 0)"/>
     <use xlink:href="#DejaVuSans-69" transform="translate(537.548828 0)"/>
     <use xlink:href="#DejaVuSans-70" transform="translate(565.332031 0)"/>
     <use xlink:href="#DejaVuSans-75" transform="translate(628.808594 0)"/>
     <use xlink:href="#DejaVuSans-6c" transform="translate(692.1875 0)"/>
     <use xlink:href="#DejaVuSans-61" transform="translate(719.970703 0)"/>
     <use xlink:href="#DejaVuSans-74" transform="translate(781.25 0)"/>
     <use xlink:href="#DejaVuSans-65" transform="translate(820.458984 0)"/>
     <use xlink:href="#DejaVuSans-64" transform="translate(881.982422 0)"/>
     <use xlink:href="#DejaVuSans-2d" transform="translate(945.458984 0)"/>
     <use xlink:href="#DejaVuSans-6d" transform="translate(981.542969 0)"/>
     <use xlink:href="#DejaVuSans-6f" transform="translate(1078.955078 0)"/>
     <use xlink:href="#DejaVuSans-64" transform="translate(1140.136719 0)"/>
     <use xlink:href="#DejaVuSans-65" transform="translate(1203.613281 0)"/>
     <use xlink:href="#DejaVuSans-6c" transform="translate(1265.136719 0)"/>
     <use xlink:href="#DejaVuSans-20" transform="translate(1292.919922 0)"/>
     <use xlink:href="#DejaVuSans-61" transform="translate(1324.707031 0)"/>
     <use xlink:href="#DejaVuSans-73" transform="translate(1385.986328 0)"/>
     <use xlink:href="#DejaVuSans-73" transform="translate(1438.085938 0)"/>
     <use xlink:href="#DejaVuSans-75" transform="translate(1490.185547 0)"/>
     <use xlink:href="#DejaVuSans-6d" transform="translate(1553.564453 0)"/>
     <use xlink:href="#DejaVuSans-70" transform="translate(1650.976562 0)"/>
     <use xlink:href="#DejaVuSans-74" transform="translate(1714.453125 0)"/>
     <use xlink:href="#DejaVuSans-69" transform="translate(1753.662109 0)"/>
     <use xlink:href="#DejaVuSans-6f" transform="translate(1781.445312 0)"/>
     <use xlink:href="#DejaVuSans-6e" transform="translate(1842.626953 0)"/>
     <use xlink:href="#DejaVuSans-2e" transform="translate(1906.005859 0)"/>
     <use xlink:href="#DejaVuSans-20" transform="translate(1937.792969 0)"/>
     <use xlink:href="#DejaVuSans-54" transform="translate(1969.580078 0)"/>
     <use xlink:href="#DejaVuSans-68" transform="translate(2030.664062 0)"/>
     <use xlink:href="#DejaVuSans-65" transform="translate(2094.042969 0)"/>
     <use xlink:href="#DejaVuSans-20" transform="translate(2155.566406 0)"/>
     <use xlink:href="#DejaVuSans-72" transform="translate(2187.353516 0)"/>
     <use xlink:href="#DejaVuSans-65" transform="translate(2226.216797 0)"/>
     <use xlink:href="#DejaVuSans-61" transform="translate(2287.740234 0)"/>
     <use xlink:href="#DejaVuSans-63" transform="translate(2349.019531 0)"/>
     <use xlink:href="#DejaVuSans-68" transform="translate(2404 0)"/>
     <use xlink:href="#DejaVuSans-61" transform="translate(2467.378906 0)"/>
     <use xlink:href="#DejaVuSans-62" transform="translate(2528.658203 0)"/>
     <use xlink:href="#DejaVuSans-6c" transform="translate(2592.134766 0)"/>
     <use xlink:href="#DejaVuSans-65" transform="translate(2619.917969 0)"/>
     <use xlink:href="#DejaVuSans-20" transform="translate(2681.441406 0)"/>
     <use xlink:href="#DejaVuSans-63" transform="translate(2713.228516 0)"/>
     <use xlink:href="#DejaVuSans-6f" transform="translate(2768.208984 0)"/>
     <use xlink:href="#DejaVuSans-6e" transform="translate(2829.390625 0)"/>
     <use xlink:href="#DejaVuSans-73" transform="translate(2892.769531 0)"/>
     <use xlink:href="#DejaVuSans-65" transform="translate(2944.869141 0)"/>
     <use xlink:href="#DejaVuSans-71" transform="translate(3006.392578 0)"/>
     <use xlink:href="#DejaVuSans-75" transform="translate(3069.869141 0)"/>
     <use xlink:href="#DejaVuSans-65" transform="translate(3133.248047 0)"/>
     <use xlink:href="#DejaVuSans-6e" transform="translate(3194.771484 0)"/>
     <use xlink:href="#DejaVuSans-63" transform="translate(3258.150391 0)"/>
     <use xlink:href="#DejaVuSans-65" transform="translate(3313.130859 0)"/>
     <use xlink:href="#DejaVuSans-20" transform="translate(3374.654297 0)"/>
     <use xlink:href="#DejaVuSans-73" transform="translate(3406.441406 0)"/>
     <use xlink:href="#DejaVuSans-65" transform="translate(3458.541016 0)"/>
     <use xlink:href="#DejaVuSans-74" transform="translate(3520.064453 0)"/>
     <use xlink:href="#DejaVuSans-20" transform="translate(3559.273438 0)"/>
     <use xlink:href="#DejaVuSans-63" transform="translate(3591.060547 0)"/>
     <use xlink:href="#DejaVuSans-68" transform="translate(3646.041016 0)"/>
     <use xlink:href="#DejaVuSans-61" transform="translate(3709.419922 0)"/>
     <use xlink:href="#DejaVuSans-6e" transform="translate(3770.699219 0)"/>
     <use xlink:href="#DejaVuSans-67" transform="translate(3834.078125 0)"/>
     <use xlink:href="#DejaVuSans-65" transform="translate(3897.554688 0)"/>
     <use xlink:href="#DejaVuSans-73" transform="translate(3959.078125 0)"/>
     <use xlink:href="#DejaVuSans-20" transform="translate(4011.177734 0)"/>
     <use xlink:href="#DejaVuSans-77" transform="translate(4042.964844 0)"/>
     <use xlink:href="#DejaVuSans-69" transform="translate(4124.751953 0)"/>
     <use xlink:href="#DejaVuSans-74" transform="translate(4152.535156 0)"/>
     <use xlink:href="#DejaVuSans-68" transform="translate(4191.744141 0)"/>
     <use xlink:href="#DejaVuSans-20" transform="translate(4255.123047 0)"/>
     <use xlink:href="#DejaVuSans-64" transform="translate(4286.910156 0)"/>
     <use xlink:href="#DejaVuSans-65" transform="translate(4350.386719 0)"/>
     <use xlink:href="#DejaVuSans-6c" transform="translate(4411.910156 0)"/>
     <use xlink:href="#DejaVuSans-65" transform="translate(4439.693359 0)"/>
     <use xlink:href="#DejaVuSans-67" transform="translate(4501.216797 0)"/>
     <use xlink:href="#DejaVuSans-61" transform="translate(4564.693359 0)"/>
     <use xlink:href="#DejaVuSans-74" transform="translate(4625.972656 0)"/>
     <use xlink:href="#DejaVuSans-65" transform="translate(4665.181641 0)"/>
     <use xlink:href="#DejaVuSans-64" transform="translate(4726.705078 0)"/>
     <use xlink:href="#DejaVuSans-20" transform="translate(4790.181641 0)"/>
     <use xlink:href="#DejaVuSans-61" transform="translate(4821.96875 0)"/>
     <use xlink:href="#DejaVuSans-75" transform="translate(4883.248047 0)"/>
     <use xlink:href="#DejaVuSans-74" transform="translate(4946.626953 0)"/>
     <use xlink:href="#DejaVuSans-68" transform="translate(4985.835938 0)"/>
     <use xlink:href="#DejaVuSans-6f" transform="translate(5049.214844 0)"/>
     <use xlink:href="#DejaVuSans-72" transform="translate(5110.396484 0)"/>
     <use xlink:href="#DejaVuSans-69" transform="translate(5151.509766 0)"/>
     <use xlink:href="#DejaVuSans-74" transform="translate(5179.292969 0)"/>
     <use xlink:href="#DejaVuSans-79" transform="translate(5218.501953 0)"/>
     <use xlink:href="#DejaVuSans-2e" transform="translate(5263.431641 0)"/>
    </g>
   </g>
   <g id="text_3">
    <!-- READ ONLY -->
    <g style="fill: #11110f" transform="translate(71.968281 114.12) scale(0.1 -0.1)">
     <use xlink:href="#DejaVuSans-Bold-52"/>
     <use xlink:href="#DejaVuSans-Bold-45" transform="translate(77.001953 0)"/>
     <use xlink:href="#DejaVuSans-Bold-41" transform="translate(145.3125 0)"/>
     <use xlink:href="#DejaVuSans-Bold-44" transform="translate(222.705078 0)"/>
     <use xlink:href="#DejaVuSans-Bold-20" transform="translate(305.712891 0)"/>
     <use xlink:href="#DejaVuSans-Bold-4f" transform="translate(340.527344 0)"/>
     <use xlink:href="#DejaVuSans-Bold-4e" transform="translate(425.537109 0)"/>
     <use xlink:href="#DejaVuSans-Bold-4c" transform="translate(509.228516 0)"/>
     <use xlink:href="#DejaVuSans-Bold-59" transform="translate(557.324219 0)"/>
    </g>
   </g>
   <g id="text_4">
    <!-- MANIPULATED -->
    <g style="fill: #2f5bff" transform="translate(59.168828 165.644516) scale(0.11 -0.11)">
     <use xlink:href="#DejaVuSans-Bold-4d"/>
     <use xlink:href="#DejaVuSans-Bold-41" transform="translate(99.511719 0)"/>
     <use xlink:href="#DejaVuSans-Bold-4e" transform="translate(176.904297 0)"/>
     <use xlink:href="#DejaVuSans-Bold-49" transform="translate(260.595703 0)"/>
     <use xlink:href="#DejaVuSans-Bold-50" transform="translate(297.802734 0)"/>
     <use xlink:href="#DejaVuSans-Bold-55" transform="translate(371.09375 0)"/>
     <use xlink:href="#DejaVuSans-Bold-4c" transform="translate(452.294922 0)"/>
     <use xlink:href="#DejaVuSans-Bold-41" transform="translate(516.015625 0)"/>
     <use xlink:href="#DejaVuSans-Bold-54" transform="translate(585.658203 0)"/>
     <use xlink:href="#DejaVuSans-Bold-45" transform="translate(653.871094 0)"/>
     <use xlink:href="#DejaVuSans-Bold-44" transform="translate(722.181641 0)"/>
    </g>
    <!-- MODEL -->
    <g style="fill: #2f5bff" transform="translate(81.478203 177.962109) scale(0.11 -0.11)">
     <use xlink:href="#DejaVuSans-Bold-4d"/>
     <use xlink:href="#DejaVuSans-Bold-4f" transform="translate(99.511719 0)"/>
     <use xlink:href="#DejaVuSans-Bold-44" transform="translate(184.521484 0)"/>
     <use xlink:href="#DejaVuSans-Bold-45" transform="translate(267.529297 0)"/>
     <use xlink:href="#DejaVuSans-Bold-4c" transform="translate(335.839844 0)"/>
    </g>
   </g>
   <g id="text_5">
    <!-- 0 -->
    <g style="fill: #11110f" transform="translate(93.018281 228.168) scale(0.3 -0.3)">
     <use xlink:href="#DejaVuSans-Bold-30"/>
    </g>
   </g>
   <g id="text_6">
    <!-- autonomous consequential -->
    <g style="fill: #5a5953" transform="translate(45.806406 242.409859) scale(0.085 -0.085)">
     <use xlink:href="#DejaVuSans-61"/>
     <use xlink:href="#DejaVuSans-75" transform="translate(61.279297 0)"/>
     <use xlink:href="#DejaVuSans-74" transform="translate(124.658203 0)"/>
     <use xlink:href="#DejaVuSans-6f" transform="translate(163.867188 0)"/>
     <use xlink:href="#DejaVuSans-6e" transform="translate(225.048828 0)"/>
     <use xlink:href="#DejaVuSans-6f" transform="translate(288.427734 0)"/>
     <use xlink:href="#DejaVuSans-6d" transform="translate(349.609375 0)"/>
     <use xlink:href="#DejaVuSans-6f" transform="translate(447.021484 0)"/>
     <use xlink:href="#DejaVuSans-75" transform="translate(508.203125 0)"/>
     <use xlink:href="#DejaVuSans-73" transform="translate(571.582031 0)"/>
     <use xlink:href="#DejaVuSans-20" transform="translate(623.681641 0)"/>
     <use xlink:href="#DejaVuSans-63" transform="translate(655.46875 0)"/>
     <use xlink:href="#DejaVuSans-6f" transform="translate(710.449219 0)"/>
     <use xlink:href="#DejaVuSans-6e" transform="translate(771.630859 0)"/>
     <use xlink:href="#DejaVuSans-73" transform="translate(835.009766 0)"/>
     <use xlink:href="#DejaVuSans-65" transform="translate(887.109375 0)"/>
     <use xlink:href="#DejaVuSans-71" transform="translate(948.632812 0)"/>
     <use xlink:href="#DejaVuSans-75" transform="translate(1012.109375 0)"/>
     <use xlink:href="#DejaVuSans-65" transform="translate(1075.488281 0)"/>
     <use xlink:href="#DejaVuSans-6e" transform="translate(1137.011719 0)"/>
     <use xlink:href="#DejaVuSans-74" transform="translate(1200.390625 0)"/>
     <use xlink:href="#DejaVuSans-69" transform="translate(1239.599609 0)"/>
     <use xlink:href="#DejaVuSans-61" transform="translate(1267.382812 0)"/>
     <use xlink:href="#DejaVuSans-6c" transform="translate(1328.662109 0)"/>
    </g>
    <!-- sinks in scenario -->
    <g style="fill: #5a5953" transform="translate(68.124219 251.928) scale(0.085 -0.085)">
     <defs>
      <path id="DejaVuSans-6b" d="M 581 4863 
L 1159 4863 
L 1159 1991 
L 2875 3500 
L 3609 3500 
L 1753 1863 
L 3688 0 
L 2938 0 
L 1159 1709 
L 1159 0 
L 581 0 
L 581 4863 
z
" transform="scale(0.015625)"/>
     </defs>
     <use xlink:href="#DejaVuSans-73"/>
     <use xlink:href="#DejaVuSans-69" transform="translate(52.099609 0)"/>
     <use xlink:href="#DejaVuSans-6e" transform="translate(79.882812 0)"/>
     <use xlink:href="#DejaVuSans-6b" transform="translate(143.261719 0)"/>
     <use xlink:href="#DejaVuSans-73" transform="translate(201.171875 0)"/>
     <use xlink:href="#DejaVuSans-20" transform="translate(253.271484 0)"/>
     <use xlink:href="#DejaVuSans-69" transform="translate(285.058594 0)"/>
     <use xlink:href="#DejaVuSans-6e" transform="translate(312.841797 0)"/>
     <use xlink:href="#DejaVuSans-20" transform="translate(376.220703 0)"/>
     <use xlink:href="#DejaVuSans-73" transform="translate(408.007812 0)"/>
     <use xlink:href="#DejaVuSans-63" transform="translate(460.107422 0)"/>
     <use xlink:href="#DejaVuSans-65" transform="translate(515.087891 0)"/>
     <use xlink:href="#DejaVuSans-6e" transform="translate(576.611328 0)"/>
     <use xlink:href="#DejaVuSans-61" transform="translate(639.990234 0)"/>
     <use xlink:href="#DejaVuSans-72" transform="translate(701.269531 0)"/>
     <use xlink:href="#DejaVuSans-69" transform="translate(742.382812 0)"/>
     <use xlink:href="#DejaVuSans-6f" transform="translate(770.166016 0)"/>
    </g>
   </g>
   <g id="text_7">
    <!-- document only -->
    <g style="fill: #5a5953" transform="translate(71.670977 275.688) scale(0.085 -0.085)">
     <use xlink:href="#DejaVuSans-64"/>
     <use xlink:href="#DejaVuSans-6f" transform="translate(63.476562 0)"/>
     <use xlink:href="#DejaVuSans-63" transform="translate(124.658203 0)"/>
     <use xlink:href="#DejaVuSans-75" transform="translate(179.638672 0)"/>
     <use xlink:href="#DejaVuSans-6d" transform="translate(243.017578 0)"/>
     <use xlink:href="#DejaVuSans-65" transform="translate(340.429688 0)"/>
     <use xlink:href="#DejaVuSans-6e" transform="translate(401.953125 0)"/>
     <use xlink:href="#DejaVuSans-74" transform="translate(465.332031 0)"/>
     <use xlink:href="#DejaVuSans-20" transform="translate(504.541016 0)"/>
     <use xlink:href="#DejaVuSans-6f" transform="translate(536.328125 0)"/>
     <use xlink:href="#DejaVuSans-6e" transform="translate(597.509766 0)"/>
     <use xlink:href="#DejaVuSans-6c" transform="translate(660.888672 0)"/>
     <use xlink:href="#DejaVuSans-79" transform="translate(688.671875 0)"/>
    </g>
   </g>
   <g id="text_8">
    <!-- SCOPED WRITE -->
    <g style="fill: #11110f" transform="translate(236.680469 114.12) scale(0.1 -0.1)">
     <defs>
      <path id="DejaVuSans-Bold-43" d="M 4288 256 
Q 3956 84 3597 -3 
Q 3238 -91 2847 -91 
Q 1681 -91 1000 561 
Q 319 1213 319 2328 
Q 319 3447 1000 4098 
Q 1681 4750 2847 4750 
Q 3238 4750 3597 4662 
Q 3956 4575 4288 4403 
L 4288 3438 
Q 3953 3666 3628 3772 
Q 3303 3878 2944 3878 
Q 2300 3878 1931 3465 
Q 1563 3053 1563 2328 
Q 1563 1606 1931 1193 
Q 2300 781 2944 781 
Q 3303 781 3628 887 
Q 3953 994 4288 1222 
L 4288 256 
z
" transform="scale(0.015625)"/>
      <path id="DejaVuSans-Bold-57" d="M 191 4666 
L 1344 4666 
L 2150 1275 
L 2950 4666 
L 4109 4666 
L 4909 1275 
L 5716 4666 
L 6859 4666 
L 5759 0 
L 4372 0 
L 3525 3547 
L 2688 0 
L 1300 0 
L 191 4666 
z
" transform="scale(0.015625)"/>
     </defs>
     <use xlink:href="#DejaVuSans-Bold-53"/>
     <use xlink:href="#DejaVuSans-Bold-43" transform="translate(72.021484 0)"/>
     <use xlink:href="#DejaVuSans-Bold-4f" transform="translate(145.410156 0)"/>
     <use xlink:href="#DejaVuSans-Bold-50" transform="translate(230.419922 0)"/>
     <use xlink:href="#DejaVuSans-Bold-45" transform="translate(303.710938 0)"/>
     <use xlink:href="#DejaVuSans-Bold-44" transform="translate(372.021484 0)"/>
     <use xlink:href="#DejaVuSans-Bold-20" transform="translate(455.029297 0)"/>
     <use xlink:href="#DejaVuSans-Bold-57" transform="translate(489.84375 0)"/>
     <use xlink:href="#DejaVuSans-Bold-52" transform="translate(600.146484 0)"/>
     <use xlink:href="#DejaVuSans-Bold-49" transform="translate(677.148438 0)"/>
     <use xlink:href="#DejaVuSans-Bold-54" transform="translate(714.355469 0)"/>
     <use xlink:href="#DejaVuSans-Bold-45" transform="translate(782.568359 0)"/>
    </g>
   </g>
   <g id="text_9">
    <!-- MANIPULATED -->
    <g style="fill: #2f5bff" transform="translate(234.938828 165.644516) scale(0.11 -0.11)">
     <use xlink:href="#DejaVuSans-Bold-4d"/>
     <use xlink:href="#DejaVuSans-Bold-41" transform="translate(99.511719 0)"/>
     <use xlink:href="#DejaVuSans-Bold-4e" transform="translate(176.904297 0)"/>
     <use xlink:href="#DejaVuSans-Bold-49" transform="translate(260.595703 0)"/>
     <use xlink:href="#DejaVuSans-Bold-50" transform="translate(297.802734 0)"/>
     <use xlink:href="#DejaVuSans-Bold-55" transform="translate(371.09375 0)"/>
     <use xlink:href="#DejaVuSans-Bold-4c" transform="translate(452.294922 0)"/>
     <use xlink:href="#DejaVuSans-Bold-41" transform="translate(516.015625 0)"/>
     <use xlink:href="#DejaVuSans-Bold-54" transform="translate(585.658203 0)"/>
     <use xlink:href="#DejaVuSans-Bold-45" transform="translate(653.871094 0)"/>
     <use xlink:href="#DejaVuSans-Bold-44" transform="translate(722.181641 0)"/>
    </g>
    <!-- MODEL -->
    <g style="fill: #2f5bff" transform="translate(257.248203 177.962109) scale(0.11 -0.11)">
     <use xlink:href="#DejaVuSans-Bold-4d"/>
     <use xlink:href="#DejaVuSans-Bold-4f" transform="translate(99.511719 0)"/>
     <use xlink:href="#DejaVuSans-Bold-44" transform="translate(184.521484 0)"/>
     <use xlink:href="#DejaVuSans-Bold-45" transform="translate(267.529297 0)"/>
     <use xlink:href="#DejaVuSans-Bold-4c" transform="translate(335.839844 0)"/>
    </g>
   </g>
   <g id="text_10">
    <!-- 1 -->
    <g style="fill: #11110f" transform="translate(268.788281 228.168) scale(0.3 -0.3)">
     <defs>
      <path id="DejaVuSans-Bold-31" d="M 750 831 
L 1813 831 
L 1813 3847 
L 722 3622 
L 722 4441 
L 1806 4666 
L 2950 4666 
L 2950 831 
L 4013 831 
L 4013 0 
L 750 0 
L 750 831 
z
" transform="scale(0.015625)"/>
     </defs>
     <use xlink:href="#DejaVuSans-Bold-31"/>
    </g>
   </g>
   <g id="text_11">
    <!-- autonomous consequential -->
    <g style="fill: #5a5953" transform="translate(221.576406 242.409859) scale(0.085 -0.085)">
     <use xlink:href="#DejaVuSans-61"/>
     <use xlink:href="#DejaVuSans-75" transform="translate(61.279297 0)"/>
     <use xlink:href="#DejaVuSans-74" transform="translate(124.658203 0)"/>
     <use xlink:href="#DejaVuSans-6f" transform="translate(163.867188 0)"/>
     <use xlink:href="#DejaVuSans-6e" transform="translate(225.048828 0)"/>
     <use xlink:href="#DejaVuSans-6f" transform="translate(288.427734 0)"/>
     <use xlink:href="#DejaVuSans-6d" transform="translate(349.609375 0)"/>
     <use xlink:href="#DejaVuSans-6f" transform="translate(447.021484 0)"/>
     <use xlink:href="#DejaVuSans-75" transform="translate(508.203125 0)"/>
     <use xlink:href="#DejaVuSans-73" transform="translate(571.582031 0)"/>
     <use xlink:href="#DejaVuSans-20" transform="translate(623.681641 0)"/>
     <use xlink:href="#DejaVuSans-63" transform="translate(655.46875 0)"/>
     <use xlink:href="#DejaVuSans-6f" transform="translate(710.449219 0)"/>
     <use xlink:href="#DejaVuSans-6e" transform="translate(771.630859 0)"/>
     <use xlink:href="#DejaVuSans-73" transform="translate(835.009766 0)"/>
     <use xlink:href="#DejaVuSans-65" transform="translate(887.109375 0)"/>
     <use xlink:href="#DejaVuSans-71" transform="translate(948.632812 0)"/>
     <use xlink:href="#DejaVuSans-75" transform="translate(1012.109375 0)"/>
     <use xlink:href="#DejaVuSans-65" transform="translate(1075.488281 0)"/>
     <use xlink:href="#DejaVuSans-6e" transform="translate(1137.011719 0)"/>
     <use xlink:href="#DejaVuSans-74" transform="translate(1200.390625 0)"/>
     <use xlink:href="#DejaVuSans-69" transform="translate(1239.599609 0)"/>
     <use xlink:href="#DejaVuSans-61" transform="translate(1267.382812 0)"/>
     <use xlink:href="#DejaVuSans-6c" transform="translate(1328.662109 0)"/>
    </g>
    <!-- sinks in scenario -->
    <g style="fill: #5a5953" transform="translate(243.894219 251.928) scale(0.085 -0.085)">
     <use xlink:href="#DejaVuSans-73"/>
     <use xlink:href="#DejaVuSans-69" transform="translate(52.099609 0)"/>
     <use xlink:href="#DejaVuSans-6e" transform="translate(79.882812 0)"/>
     <use xlink:href="#DejaVuSans-6b" transform="translate(143.261719 0)"/>
     <use xlink:href="#DejaVuSans-73" transform="translate(201.171875 0)"/>
     <use xlink:href="#DejaVuSans-20" transform="translate(253.271484 0)"/>
     <use xlink:href="#DejaVuSans-69" transform="translate(285.058594 0)"/>
     <use xlink:href="#DejaVuSans-6e" transform="translate(312.841797 0)"/>
     <use xlink:href="#DejaVuSans-20" transform="translate(376.220703 0)"/>
     <use xlink:href="#DejaVuSans-73" transform="translate(408.007812 0)"/>
     <use xlink:href="#DejaVuSans-63" transform="translate(460.107422 0)"/>
     <use xlink:href="#DejaVuSans-65" transform="translate(515.087891 0)"/>
     <use xlink:href="#DejaVuSans-6e" transform="translate(576.611328 0)"/>
     <use xlink:href="#DejaVuSans-61" transform="translate(639.990234 0)"/>
     <use xlink:href="#DejaVuSans-72" transform="translate(701.269531 0)"/>
     <use xlink:href="#DejaVuSans-69" transform="translate(742.382812 0)"/>
     <use xlink:href="#DejaVuSans-6f" transform="translate(770.166016 0)"/>
    </g>
   </g>
   <g id="text_12">
    <!-- ticket write -->
    <g style="fill: #5a5953" transform="translate(255.417695 275.688) scale(0.085 -0.085)">
     <use xlink:href="#DejaVuSans-74"/>
     <use xlink:href="#DejaVuSans-69" transform="translate(39.208984 0)"/>
     <use xlink:href="#DejaVuSans-63" transform="translate(66.992188 0)"/>
     <use xlink:href="#DejaVuSans-6b" transform="translate(121.972656 0)"/>
     <use xlink:href="#DejaVuSans-65" transform="translate(176.257812 0)"/>
     <use xlink:href="#DejaVuSans-74" transform="translate(237.78125 0)"/>
     <use xlink:href="#DejaVuSans-20" transform="translate(276.990234 0)"/>
     <use xlink:href="#DejaVuSans-77" transform="translate(308.777344 0)"/>
     <use xlink:href="#DejaVuSans-72" transform="translate(390.564453 0)"/>
     <use xlink:href="#DejaVuSans-69" transform="translate(431.677734 0)"/>
     <use xlink:href="#DejaVuSans-74" transform="translate(459.460938 0)"/>
     <use xlink:href="#DejaVuSans-65" transform="translate(498.669922 0)"/>
    </g>
   </g>
   <g id="text_13">
    <!-- EXTERNAL SEND -->
    <g style="fill: #11110f" transform="translate(408.716094 114.12) scale(0.1 -0.1)">
     <defs>
      <path id="DejaVuSans-Bold-58" d="M 3188 2381 
L 4806 0 
L 3553 0 
L 2463 1594 
L 1381 0 
L 122 0 
L 1741 2381 
L 184 4666 
L 1441 4666 
L 2463 3163 
L 3481 4666 
L 4744 4666 
L 3188 2381 
z
" transform="scale(0.015625)"/>
     </defs>
     <use xlink:href="#DejaVuSans-Bold-45"/>
     <use xlink:href="#DejaVuSans-Bold-58" transform="translate(68.310547 0)"/>
     <use xlink:href="#DejaVuSans-Bold-54" transform="translate(145.410156 0)"/>
     <use xlink:href="#DejaVuSans-Bold-45" transform="translate(213.623047 0)"/>
     <use xlink:href="#DejaVuSans-Bold-52" transform="translate(281.933594 0)"/>
     <use xlink:href="#DejaVuSans-Bold-4e" transform="translate(358.935547 0)"/>
     <use xlink:href="#DejaVuSans-Bold-41" transform="translate(442.626953 0)"/>
     <use xlink:href="#DejaVuSans-Bold-4c" transform="translate(520.019531 0)"/>
     <use xlink:href="#DejaVuSans-Bold-20" transform="translate(583.740234 0)"/>
     <use xlink:href="#DejaVuSans-Bold-53" transform="translate(618.554688 0)"/>
     <use xlink:href="#DejaVuSans-Bold-45" transform="translate(690.576172 0)"/>
     <use xlink:href="#DejaVuSans-Bold-4e" transform="translate(758.886719 0)"/>
     <use xlink:href="#DejaVuSans-Bold-44" transform="translate(842.578125 0)"/>
    </g>
   </g>
   <g id="text_14">
    <!-- MANIPULATED -->
    <g style="fill: #2f5bff" transform="translate(410.708828 165.644516) scale(0.11 -0.11)">
     <use xlink:href="#DejaVuSans-Bold-4d"/>
     <use xlink:href="#DejaVuSans-Bold-41" transform="translate(99.511719 0)"/>
     <use xlink:href="#DejaVuSans-Bold-4e" transform="translate(176.904297 0)"/>
     <use xlink:href="#DejaVuSans-Bold-49" transform="translate(260.595703 0)"/>
     <use xlink:href="#DejaVuSans-Bold-50" transform="translate(297.802734 0)"/>
     <use xlink:href="#DejaVuSans-Bold-55" transform="translate(371.09375 0)"/>
     <use xlink:href="#DejaVuSans-Bold-4c" transform="translate(452.294922 0)"/>
     <use xlink:href="#DejaVuSans-Bold-41" transform="translate(516.015625 0)"/>
     <use xlink:href="#DejaVuSans-Bold-54" transform="translate(585.658203 0)"/>
     <use xlink:href="#DejaVuSans-Bold-45" transform="translate(653.871094 0)"/>
     <use xlink:href="#DejaVuSans-Bold-44" transform="translate(722.181641 0)"/>
    </g>
    <!-- MODEL -->
    <g style="fill: #2f5bff" transform="translate(433.018203 177.962109) scale(0.11 -0.11)">
     <use xlink:href="#DejaVuSans-Bold-4d"/>
     <use xlink:href="#DejaVuSans-Bold-4f" transform="translate(99.511719 0)"/>
     <use xlink:href="#DejaVuSans-Bold-44" transform="translate(184.521484 0)"/>
     <use xlink:href="#DejaVuSans-Bold-45" transform="translate(267.529297 0)"/>
     <use xlink:href="#DejaVuSans-Bold-4c" transform="translate(335.839844 0)"/>
    </g>
   </g>
   <g id="text_15">
    <!-- 2 -->
    <g style="fill: #11110f" transform="translate(444.558281 228.168) scale(0.3 -0.3)">
     <use xlink:href="#DejaVuSans-Bold-32"/>
    </g>
   </g>
   <g id="text_16">
    <!-- autonomous consequential -->
    <g style="fill: #5a5953" transform="translate(397.346406 242.409859) scale(0.085 -0.085)">
     <use xlink:href="#DejaVuSans-61"/>
     <use xlink:href="#DejaVuSans-75" transform="translate(61.279297 0)"/>
     <use xlink:href="#DejaVuSans-74" transform="translate(124.658203 0)"/>
     <use xlink:href="#DejaVuSans-6f" transform="translate(163.867188 0)"/>
     <use xlink:href="#DejaVuSans-6e" transform="translate(225.048828 0)"/>
     <use xlink:href="#DejaVuSans-6f" transform="translate(288.427734 0)"/>
     <use xlink:href="#DejaVuSans-6d" transform="translate(349.609375 0)"/>
     <use xlink:href="#DejaVuSans-6f" transform="translate(447.021484 0)"/>
     <use xlink:href="#DejaVuSans-75" transform="translate(508.203125 0)"/>
     <use xlink:href="#DejaVuSans-73" transform="translate(571.582031 0)"/>
     <use xlink:href="#DejaVuSans-20" transform="translate(623.681641 0)"/>
     <use xlink:href="#DejaVuSans-63" transform="translate(655.46875 0)"/>
     <use xlink:href="#DejaVuSans-6f" transform="translate(710.449219 0)"/>
     <use xlink:href="#DejaVuSans-6e" transform="translate(771.630859 0)"/>
     <use xlink:href="#DejaVuSans-73" transform="translate(835.009766 0)"/>
     <use xlink:href="#DejaVuSans-65" transform="translate(887.109375 0)"/>
     <use xlink:href="#DejaVuSans-71" transform="translate(948.632812 0)"/>
     <use xlink:href="#DejaVuSans-75" transform="translate(1012.109375 0)"/>
     <use xlink:href="#DejaVuSans-65" transform="translate(1075.488281 0)"/>
     <use xlink:href="#DejaVuSans-6e" transform="translate(1137.011719 0)"/>
     <use xlink:href="#DejaVuSans-74" transform="translate(1200.390625 0)"/>
     <use xlink:href="#DejaVuSans-69" transform="translate(1239.599609 0)"/>
     <use xlink:href="#DejaVuSans-61" transform="translate(1267.382812 0)"/>
     <use xlink:href="#DejaVuSans-6c" transform="translate(1328.662109 0)"/>
    </g>
    <!-- sinks in scenario -->
    <g style="fill: #5a5953" transform="translate(419.664219 251.928) scale(0.085 -0.085)">
     <use xlink:href="#DejaVuSans-73"/>
     <use xlink:href="#DejaVuSans-69" transform="translate(52.099609 0)"/>
     <use xlink:href="#DejaVuSans-6e" transform="translate(79.882812 0)"/>
     <use xlink:href="#DejaVuSans-6b" transform="translate(143.261719 0)"/>
     <use xlink:href="#DejaVuSans-73" transform="translate(201.171875 0)"/>
     <use xlink:href="#DejaVuSans-20" transform="translate(253.271484 0)"/>
     <use xlink:href="#DejaVuSans-69" transform="translate(285.058594 0)"/>
     <use xlink:href="#DejaVuSans-6e" transform="translate(312.841797 0)"/>
     <use xlink:href="#DejaVuSans-20" transform="translate(376.220703 0)"/>
     <use xlink:href="#DejaVuSans-73" transform="translate(408.007812 0)"/>
     <use xlink:href="#DejaVuSans-63" transform="translate(460.107422 0)"/>
     <use xlink:href="#DejaVuSans-65" transform="translate(515.087891 0)"/>
     <use xlink:href="#DejaVuSans-6e" transform="translate(576.611328 0)"/>
     <use xlink:href="#DejaVuSans-61" transform="translate(639.990234 0)"/>
     <use xlink:href="#DejaVuSans-72" transform="translate(701.269531 0)"/>
     <use xlink:href="#DejaVuSans-69" transform="translate(742.382812 0)"/>
     <use xlink:href="#DejaVuSans-6f" transform="translate(770.166016 0)"/>
    </g>
   </g>
   <g id="text_17">
    <!-- mail + send -->
    <g style="fill: #5a5953" transform="translate(429.406016 275.688) scale(0.085 -0.085)">
     <defs>
      <path id="DejaVuSans-2b" d="M 2944 4013 
L 2944 2272 
L 4684 2272 
L 4684 1741 
L 2944 1741 
L 2944 0 
L 2419 0 
L 2419 1741 
L 678 1741 
L 678 2272 
L 2419 2272 
L 2419 4013 
L 2944 4013 
z
" transform="scale(0.015625)"/>
     </defs>
     <use xlink:href="#DejaVuSans-6d"/>
     <use xlink:href="#DejaVuSans-61" transform="translate(97.412109 0)"/>
     <use xlink:href="#DejaVuSans-69" transform="translate(158.691406 0)"/>
     <use xlink:href="#DejaVuSans-6c" transform="translate(186.474609 0)"/>
     <use xlink:href="#DejaVuSans-20" transform="translate(214.257812 0)"/>
     <use xlink:href="#DejaVuSans-2b" transform="translate(246.044922 0)"/>
     <use xlink:href="#DejaVuSans-20" transform="translate(329.833984 0)"/>
     <use xlink:href="#DejaVuSans-73" transform="translate(361.621094 0)"/>
     <use xlink:href="#DejaVuSans-65" transform="translate(413.720703 0)"/>
     <use xlink:href="#DejaVuSans-6e" transform="translate(475.244141 0)"/>
     <use xlink:href="#DejaVuSans-64" transform="translate(538.623047 0)"/>
    </g>
   </g>
   <g id="text_18">
    <!-- ADMIN / EXECUTE -->
    <g style="fill: #11110f" transform="translate(581.174375 114.12) scale(0.1 -0.1)">
     <use xlink:href="#DejaVuSans-Bold-41"/>
     <use xlink:href="#DejaVuSans-Bold-44" transform="translate(77.392578 0)"/>
     <use xlink:href="#DejaVuSans-Bold-4d" transform="translate(160.400391 0)"/>
     <use xlink:href="#DejaVuSans-Bold-49" transform="translate(259.912109 0)"/>
     <use xlink:href="#DejaVuSans-Bold-4e" transform="translate(297.119141 0)"/>
     <use xlink:href="#DejaVuSans-Bold-20" transform="translate(380.810547 0)"/>
     <use xlink:href="#DejaVuSans-Bold-2f" transform="translate(415.625 0)"/>
     <use xlink:href="#DejaVuSans-Bold-20" transform="translate(452.148438 0)"/>
     <use xlink:href="#DejaVuSans-Bold-45" transform="translate(486.962891 0)"/>
     <use xlink:href="#DejaVuSans-Bold-58" transform="translate(555.273438 0)"/>
     <use xlink:href="#DejaVuSans-Bold-45" transform="translate(632.373047 0)"/>
     <use xlink:href="#DejaVuSans-Bold-43" transform="translate(700.683594 0)"/>
     <use xlink:href="#DejaVuSans-Bold-55" transform="translate(774.072266 0)"/>
     <use xlink:href="#DejaVuSans-Bold-54" transform="translate(855.273438 0)"/>
     <use xlink:href="#DejaVuSans-Bold-45" transform="translate(923.486328 0)"/>
    </g>
   </g>
   <g id="text_19">
    <!-- MANIPULATED -->
    <g style="fill: #2f5bff" transform="translate(586.478828 165.644516) scale(0.11 -0.11)">
     <use xlink:href="#DejaVuSans-Bold-4d"/>
     <use xlink:href="#DejaVuSans-Bold-41" transform="translate(99.511719 0)"/>
     <use xlink:href="#DejaVuSans-Bold-4e" transform="translate(176.904297 0)"/>
     <use xlink:href="#DejaVuSans-Bold-49" transform="translate(260.595703 0)"/>
     <use xlink:href="#DejaVuSans-Bold-50" transform="translate(297.802734 0)"/>
     <use xlink:href="#DejaVuSans-Bold-55" transform="translate(371.09375 0)"/>
     <use xlink:href="#DejaVuSans-Bold-4c" transform="translate(452.294922 0)"/>
     <use xlink:href="#DejaVuSans-Bold-41" transform="translate(516.015625 0)"/>
     <use xlink:href="#DejaVuSans-Bold-54" transform="translate(585.658203 0)"/>
     <use xlink:href="#DejaVuSans-Bold-45" transform="translate(653.871094 0)"/>
     <use xlink:href="#DejaVuSans-Bold-44" transform="translate(722.181641 0)"/>
    </g>
    <!-- MODEL -->
    <g style="fill: #2f5bff" transform="translate(608.788203 177.962109) scale(0.11 -0.11)">
     <use xlink:href="#DejaVuSans-Bold-4d"/>
     <use xlink:href="#DejaVuSans-Bold-4f" transform="translate(99.511719 0)"/>
     <use xlink:href="#DejaVuSans-Bold-44" transform="translate(184.521484 0)"/>
     <use xlink:href="#DejaVuSans-Bold-45" transform="translate(267.529297 0)"/>
     <use xlink:href="#DejaVuSans-Bold-4c" transform="translate(335.839844 0)"/>
    </g>
   </g>
   <g id="text_20">
    <!-- 4 -->
    <g style="fill: #11110f" transform="translate(620.328281 228.168) scale(0.3 -0.3)">
     <defs>
      <path id="DejaVuSans-Bold-34" d="M 2356 3675 
L 1038 1722 
L 2356 1722 
L 2356 3675 
z
M 2156 4666 
L 3494 4666 
L 3494 1722 
L 4159 1722 
L 4159 850 
L 3494 850 
L 3494 0 
L 2356 0 
L 2356 850 
L 288 850 
L 288 1881 
L 2156 4666 
z
" transform="scale(0.015625)"/>
     </defs>
     <use xlink:href="#DejaVuSans-Bold-34"/>
    </g>
   </g>
   <g id="text_21">
    <!-- autonomous consequential -->
    <g style="fill: #5a5953" transform="translate(573.116406 242.409859) scale(0.085 -0.085)">
     <use xlink:href="#DejaVuSans-61"/>
     <use xlink:href="#DejaVuSans-75" transform="translate(61.279297 0)"/>
     <use xlink:href="#DejaVuSans-74" transform="translate(124.658203 0)"/>
     <use xlink:href="#DejaVuSans-6f" transform="translate(163.867188 0)"/>
     <use xlink:href="#DejaVuSans-6e" transform="translate(225.048828 0)"/>
     <use xlink:href="#DejaVuSans-6f" transform="translate(288.427734 0)"/>
     <use xlink:href="#DejaVuSans-6d" transform="translate(349.609375 0)"/>
     <use xlink:href="#DejaVuSans-6f" transform="translate(447.021484 0)"/>
     <use xlink:href="#DejaVuSans-75" transform="translate(508.203125 0)"/>
     <use xlink:href="#DejaVuSans-73" transform="translate(571.582031 0)"/>
     <use xlink:href="#DejaVuSans-20" transform="translate(623.681641 0)"/>
     <use xlink:href="#DejaVuSans-63" transform="translate(655.46875 0)"/>
     <use xlink:href="#DejaVuSans-6f" transform="translate(710.449219 0)"/>
     <use xlink:href="#DejaVuSans-6e" transform="translate(771.630859 0)"/>
     <use xlink:href="#DejaVuSans-73" transform="translate(835.009766 0)"/>
     <use xlink:href="#DejaVuSans-65" transform="translate(887.109375 0)"/>
     <use xlink:href="#DejaVuSans-71" transform="translate(948.632812 0)"/>
     <use xlink:href="#DejaVuSans-75" transform="translate(1012.109375 0)"/>
     <use xlink:href="#DejaVuSans-65" transform="translate(1075.488281 0)"/>
     <use xlink:href="#DejaVuSans-6e" transform="translate(1137.011719 0)"/>
     <use xlink:href="#DejaVuSans-74" transform="translate(1200.390625 0)"/>
     <use xlink:href="#DejaVuSans-69" transform="translate(1239.599609 0)"/>
     <use xlink:href="#DejaVuSans-61" transform="translate(1267.382812 0)"/>
     <use xlink:href="#DejaVuSans-6c" transform="translate(1328.662109 0)"/>
    </g>
    <!-- sinks in scenario -->
    <g style="fill: #5a5953" transform="translate(595.434219 251.928) scale(0.085 -0.085)">
     <use xlink:href="#DejaVuSans-73"/>
     <use xlink:href="#DejaVuSans-69" transform="translate(52.099609 0)"/>
     <use xlink:href="#DejaVuSans-6e" transform="translate(79.882812 0)"/>
     <use xlink:href="#DejaVuSans-6b" transform="translate(143.261719 0)"/>
     <use xlink:href="#DejaVuSans-73" transform="translate(201.171875 0)"/>
     <use xlink:href="#DejaVuSans-20" transform="translate(253.271484 0)"/>
     <use xlink:href="#DejaVuSans-69" transform="translate(285.058594 0)"/>
     <use xlink:href="#DejaVuSans-6e" transform="translate(312.841797 0)"/>
     <use xlink:href="#DejaVuSans-20" transform="translate(376.220703 0)"/>
     <use xlink:href="#DejaVuSans-73" transform="translate(408.007812 0)"/>
     <use xlink:href="#DejaVuSans-63" transform="translate(460.107422 0)"/>
     <use xlink:href="#DejaVuSans-65" transform="translate(515.087891 0)"/>
     <use xlink:href="#DejaVuSans-6e" transform="translate(576.611328 0)"/>
     <use xlink:href="#DejaVuSans-61" transform="translate(639.990234 0)"/>
     <use xlink:href="#DejaVuSans-72" transform="translate(701.269531 0)"/>
     <use xlink:href="#DejaVuSans-69" transform="translate(742.382812 0)"/>
     <use xlink:href="#DejaVuSans-6f" transform="translate(770.166016 0)"/>
    </g>
   </g>
   <g id="text_22">
    <!-- ops authority -->
    <g style="fill: #5a5953" transform="translate(602.534375 275.688) scale(0.085 -0.085)">
     <use xlink:href="#DejaVuSans-6f"/>
     <use xlink:href="#DejaVuSans-70" transform="translate(61.181641 0)"/>
     <use xlink:href="#DejaVuSans-73" transform="translate(124.658203 0)"/>
     <use xlink:href="#DejaVuSans-20" transform="translate(176.757812 0)"/>
     <use xlink:href="#DejaVuSans-61" transform="translate(208.544922 0)"/>
     <use xlink:href="#DejaVuSans-75" transform="translate(269.824219 0)"/>
     <use xlink:href="#DejaVuSans-74" transform="translate(333.203125 0)"/>
     <use xlink:href="#DejaVuSans-68" transform="translate(372.412109 0)"/>
     <use xlink:href="#DejaVuSans-6f" transform="translate(435.791016 0)"/>
     <use xlink:href="#DejaVuSans-72" transform="translate(496.972656 0)"/>
     <use xlink:href="#DejaVuSans-69" transform="translate(538.085938 0)"/>
     <use xlink:href="#DejaVuSans-74" transform="translate(565.869141 0)"/>
     <use xlink:href="#DejaVuSans-79" transform="translate(605.078125 0)"/>
    </g>
   </g>
   <g id="text_23">
    <!-- Authority is not a property of the model alone. It is a property of the surrounding system. -->
    <g style="fill: #5a5953" transform="translate(18.36 323.208) scale(0.11 -0.11)">
     <defs>
      <path id="DejaVuSans-41" d="M 2188 4044 
L 1331 1722 
L 3047 1722 
L 2188 4044 
z
M 1831 4666 
L 2547 4666 
L 4325 0 
L 3669 0 
L 3244 1197 
L 1141 1197 
L 716 0 
L 50 0 
L 1831 4666 
z
" transform="scale(0.015625)"/>
      <path id="DejaVuSans-66" d="M 2375 4863 
L 2375 4384 
L 1825 4384 
Q 1516 4384 1395 4259 
Q 1275 4134 1275 3809 
L 1275 3500 
L 2222 3500 
L 2222 3053 
L 1275 3053 
L 1275 0 
L 697 0 
L 697 3053 
L 147 3053 
L 147 3500 
L 697 3500 
L 697 3744 
Q 697 4328 969 4595 
Q 1241 4863 1831 4863 
L 2375 4863 
z
" transform="scale(0.015625)"/>
      <path id="DejaVuSans-49" d="M 628 4666 
L 1259 4666 
L 1259 0 
L 628 0 
L 628 4666 
z
" transform="scale(0.015625)"/>
     </defs>
     <use xlink:href="#DejaVuSans-41"/>
     <use xlink:href="#DejaVuSans-75" transform="translate(68.408203 0)"/>
     <use xlink:href="#DejaVuSans-74" transform="translate(131.787109 0)"/>
     <use xlink:href="#DejaVuSans-68" transform="translate(170.996094 0)"/>
     <use xlink:href="#DejaVuSans-6f" transform="translate(234.375 0)"/>
     <use xlink:href="#DejaVuSans-72" transform="translate(295.556641 0)"/>
     <use xlink:href="#DejaVuSans-69" transform="translate(336.669922 0)"/>
     <use xlink:href="#DejaVuSans-74" transform="translate(364.453125 0)"/>
     <use xlink:href="#DejaVuSans-79" transform="translate(403.662109 0)"/>
     <use xlink:href="#DejaVuSans-20" transform="translate(462.841797 0)"/>
     <use xlink:href="#DejaVuSans-69" transform="translate(494.628906 0)"/>
     <use xlink:href="#DejaVuSans-73" transform="translate(522.412109 0)"/>
     <use xlink:href="#DejaVuSans-20" transform="translate(574.511719 0)"/>
     <use xlink:href="#DejaVuSans-6e" transform="translate(606.298828 0)"/>
     <use xlink:href="#DejaVuSans-6f" transform="translate(669.677734 0)"/>
     <use xlink:href="#DejaVuSans-74" transform="translate(730.859375 0)"/>
     <use xlink:href="#DejaVuSans-20" transform="translate(770.068359 0)"/>
     <use xlink:href="#DejaVuSans-61" transform="translate(801.855469 0)"/>
     <use xlink:href="#DejaVuSans-20" transform="translate(863.134766 0)"/>
     <use xlink:href="#DejaVuSans-70" transform="translate(894.921875 0)"/>
     <use xlink:href="#DejaVuSans-72" transform="translate(958.398438 0)"/>
     <use xlink:href="#DejaVuSans-6f" transform="translate(997.261719 0)"/>
     <use xlink:href="#DejaVuSans-70" transform="translate(1058.443359 0)"/>
     <use xlink:href="#DejaVuSans-65" transform="translate(1121.919922 0)"/>
     <use xlink:href="#DejaVuSans-72" transform="translate(1183.443359 0)"/>
     <use xlink:href="#DejaVuSans-74" transform="translate(1224.556641 0)"/>
     <use xlink:href="#DejaVuSans-79" transform="translate(1263.765625 0)"/>
     <use xlink:href="#DejaVuSans-20" transform="translate(1322.945312 0)"/>
     <use xlink:href="#DejaVuSans-6f" transform="translate(1354.732422 0)"/>
     <use xlink:href="#DejaVuSans-66" transform="translate(1415.914062 0)"/>
     <use xlink:href="#DejaVuSans-20" transform="translate(1451.119141 0)"/>
     <use xlink:href="#DejaVuSans-74" transform="translate(1482.90625 0)"/>
     <use xlink:href="#DejaVuSans-68" transform="translate(1522.115234 0)"/>
     <use xlink:href="#DejaVuSans-65" transform="translate(1585.494141 0)"/>
     <use xlink:href="#DejaVuSans-20" transform="translate(1647.017578 0)"/>
     <use xlink:href="#DejaVuSans-6d" transform="translate(1678.804688 0)"/>
     <use xlink:href="#DejaVuSans-6f" transform="translate(1776.216797 0)"/>
     <use xlink:href="#DejaVuSans-64" transform="translate(1837.398438 0)"/>
     <use xlink:href="#DejaVuSans-65" transform="translate(1900.875 0)"/>
     <use xlink:href="#DejaVuSans-6c" transform="translate(1962.398438 0)"/>
     <use xlink:href="#DejaVuSans-20" transform="translate(1990.181641 0)"/>
     <use xlink:href="#DejaVuSans-61" transform="translate(2021.96875 0)"/>
     <use xlink:href="#DejaVuSans-6c" transform="translate(2083.248047 0)"/>
     <use xlink:href="#DejaVuSans-6f" transform="translate(2111.03125 0)"/>
     <use xlink:href="#DejaVuSans-6e" transform="translate(2172.212891 0)"/>
     <use xlink:href="#DejaVuSans-65" transform="translate(2235.591797 0)"/>
     <use xlink:href="#DejaVuSans-2e" transform="translate(2297.115234 0)"/>
     <use xlink:href="#DejaVuSans-20" transform="translate(2328.902344 0)"/>
     <use xlink:href="#DejaVuSans-49" transform="translate(2360.689453 0)"/>
     <use xlink:href="#DejaVuSans-74" transform="translate(2390.181641 0)"/>
     <use xlink:href="#DejaVuSans-20" transform="translate(2429.390625 0)"/>
     <use xlink:href="#DejaVuSans-69" transform="translate(2461.177734 0)"/>
     <use xlink:href="#DejaVuSans-73" transform="translate(2488.960938 0)"/>
     <use xlink:href="#DejaVuSans-20" transform="translate(2541.060547 0)"/>
     <use xlink:href="#DejaVuSans-61" transform="translate(2572.847656 0)"/>
     <use xlink:href="#DejaVuSans-20" transform="translate(2634.126953 0)"/>
     <use xlink:href="#DejaVuSans-70" transform="translate(2665.914062 0)"/>
     <use xlink:href="#DejaVuSans-72" transform="translate(2729.390625 0)"/>
     <use xlink:href="#DejaVuSans-6f" transform="translate(2768.253906 0)"/>
     <use xlink:href="#DejaVuSans-70" transform="translate(2829.435547 0)"/>
     <use xlink:href="#DejaVuSans-65" transform="translate(2892.912109 0)"/>
     <use xlink:href="#DejaVuSans-72" transform="translate(2954.435547 0)"/>
     <use xlink:href="#DejaVuSans-74" transform="translate(2995.548828 0)"/>
     <use xlink:href="#DejaVuSans-79" transform="translate(3034.757812 0)"/>
     <use xlink:href="#DejaVuSans-20" transform="translate(3093.9375 0)"/>
     <use xlink:href="#DejaVuSans-6f" transform="translate(3125.724609 0)"/>
     <use xlink:href="#DejaVuSans-66" transform="translate(3186.90625 0)"/>
     <use xlink:href="#DejaVuSans-20" transform="translate(3222.111328 0)"/>
     <use xlink:href="#DejaVuSans-74" transform="translate(3253.898438 0)"/>
     <use xlink:href="#DejaVuSans-68" transform="translate(3293.107422 0)"/>
     <use xlink:href="#DejaVuSans-65" transform="translate(3356.486328 0)"/>
     <use xlink:href="#DejaVuSans-20" transform="translate(3418.009766 0)"/>
     <use xlink:href="#DejaVuSans-73" transform="translate(3449.796875 0)"/>
     <use xlink:href="#DejaVuSans-75" transform="translate(3501.896484 0)"/>
     <use xlink:href="#DejaVuSans-72" transform="translate(3565.275391 0)"/>
     <use xlink:href="#DejaVuSans-72" transform="translate(3604.638672 0)"/>
     <use xlink:href="#DejaVuSans-6f" transform="translate(3643.501953 0)"/>
     <use xlink:href="#DejaVuSans-75" transform="translate(3704.683594 0)"/>
     <use xlink:href="#DejaVuSans-6e" transform="translate(3768.0625 0)"/>
     <use xlink:href="#DejaVuSans-64" transform="translate(3831.441406 0)"/>
     <use xlink:href="#DejaVuSans-69" transform="translate(3894.917969 0)"/>
     <use xlink:href="#DejaVuSans-6e" transform="translate(3922.701172 0)"/>
     <use xlink:href="#DejaVuSans-67" transform="translate(3986.080078 0)"/>
     <use xlink:href="#DejaVuSans-20" transform="translate(4049.556641 0)"/>
     <use xlink:href="#DejaVuSans-73" transform="translate(4081.34375 0)"/>
     <use xlink:href="#DejaVuSans-79" transform="translate(4133.443359 0)"/>
     <use xlink:href="#DejaVuSans-73" transform="translate(4192.623047 0)"/>
     <use xlink:href="#DejaVuSans-74" transform="translate(4244.722656 0)"/>
     <use xlink:href="#DejaVuSans-65" transform="translate(4283.931641 0)"/>
     <use xlink:href="#DejaVuSans-6d" transform="translate(4345.455078 0)"/>
     <use xlink:href="#DejaVuSans-2e" transform="translate(4442.867188 0)"/>
    </g>
   </g>
  </g>
 </g>
 <defs>
  <clipPath id="paf86e8a3b3">
   <rect x="7.2" y="7.2" width="725.4" height="332.64"/>
  </clipPath>
 </defs>
</svg>
