<?xml version="1.0" encoding="utf-8" standalone="no"?>
<!DOCTYPE svg PUBLIC "-//W3C//DTD SVG 1.1//EN"
  "http://www.w3.org/Graphics/SVG/1.1/DTD/svg11.dtd">
<svg xmlns:xlink="http://www.w3.org/1999/xlink" width="583.92pt" height="363.943913pt" viewBox="0 0 583.92 363.943913" xmlns="http://www.w3.org/2000/svg" version="1.1">
 <metadata>
  <rdf:RDF xmlns:dc="http://purl.org/dc/elements/1.1/" xmlns:cc="http://creativecommons.org/ns#" xmlns:rdf="http://www.w3.org/1999/02/22-rdf-syntax-ns#">
   <cc:Work>
    <dc:type rdf:resource="http://purl.org/dc/dcmitype/StillImage"/>
    <dc:date>2026-08-10T11:27:54.157169</dc:date>
    <dc:format>image/svg+xml</dc:format>
    <dc:creator>
     <cc:Agent>
      <dc:title>Matplotlib v3.10.8, https://matplotlib.org/</dc:title>
     </cc:Agent>
    </dc:creator>
   </cc:Work>
  </rdf:RDF>
 </metadata>
 <defs>
  <style type="text/css">*{stroke-linejoin: round; stroke-linecap: butt}</style>
 </defs>
 <g id="figure_1">
  <g id="patch_1">
   <path d="M 0 363.943913 
L 583.92 363.943913 
L 583.92 0 
L 0 0 
z
" style="fill: #f2efe7"/>
  </g>
  <g id="axes_1">
   <g id="patch_2">
    <path d="M 40.86 191.917313 
L 110.61 191.917313 
Q 111.726 191.917313 111.726 190.900913 
L 111.726 137.539913 
Q 111.726 136.523513 110.61 136.523513 
L 40.86 136.523513 
Q 39.744 136.523513 39.744 137.539913 
L 39.744 190.900913 
Q 39.744 191.917313 40.86 191.917313 
z
" clip-path="url(#p55bc22e424)" style="fill: #f2efe7; stroke: #c9c3b7; stroke-width: 1.5; stroke-linejoin: miter"/>
   </g>
   <g id="patch_3">
    <path d="M 144.09 191.917313 
L 213.84 191.917313 
Q 214.956 191.917313 214.956 190.900913 
L 214.956 137.539913 
Q 214.956 136.523513 213.84 136.523513 
L 144.09 136.523513 
Q 142.974 136.523513 142.974 137.539913 
L 142.974 190.900913 
Q 142.974 191.917313 144.09 191.917313 
z
" clip-path="url(#p55bc22e424)" style="fill: #f2efe7; stroke: #2f5bff; stroke-width: 1.5; stroke-linejoin: miter"/>
   </g>
   <g id="patch_4">
    <path d="M 247.32 191.917313 
L 317.07 191.917313 
Q 318.186 191.917313 318.186 190.900913 
L 318.186 137.539913 
Q 318.186 136.523513 317.07 136.523513 
L 247.32 136.523513 
Q 246.204 136.523513 246.204 137.539913 
L 246.204 190.900913 
Q 246.204 191.917313 247.32 191.917313 
z
" clip-path="url(#p55bc22e424)" style="fill: #f2efe7; stroke: #c9c3b7; stroke-width: 1.5; stroke-linejoin: miter"/>
   </g>
   <g id="patch_5">
    <path d="M 350.55 191.917313 
L 420.3 191.917313 
Q 421.416 191.917313 421.416 190.900913 
L 421.416 137.539913 
Q 421.416 136.523513 420.3 136.523513 
L 350.55 136.523513 
Q 349.434 136.523513 349.434 137.539913 
L 349.434 190.900913 
Q 349.434 191.917313 350.55 191.917313 
z
" clip-path="url(#p55bc22e424)" style="fill: #f2efe7; stroke: #c9c3b7; stroke-width: 1.5; stroke-linejoin: miter"/>
   </g>
   <g id="patch_6">
    <path d="M 453.78 191.917313 
L 523.53 191.917313 
Q 524.646 191.917313 524.646 190.900913 
L 524.646 137.539913 
Q 524.646 136.523513 523.53 136.523513 
L 453.78 136.523513 
Q 452.664 136.523513 452.664 137.539913 
L 452.664 190.900913 
Q 452.664 191.917313 453.78 191.917313 
z
" clip-path="url(#p55bc22e424)" style="fill: #f2efe7; stroke: #2f5bff; stroke-width: 1.5; stroke-linejoin: miter"/>
   </g>
   <g id="text_1">
    <text style="font-weight: 700; font-size: 9px; font-family: 'DejaVu Sans'; text-anchor: start; fill: #2f5bff" x="12.96" y="19.798594" transform="rotate(-0 12.96 19.798594)">FIGURE 02 / SYSTEMS</text>
   </g>
   <g id="text_2">
    <text style="font-weight: 700; font-size: 17px; font-family: 'DejaVu Sans'; text-anchor: start; fill: #11110f" x="12.96" y="36.430044" transform="rotate(-0 12.96 36.430044)">Where do 320 KiB per token come from?</text>
   </g>
   <g id="text_3">
    <text style="font-size: 9.5px; font-family: 'DejaVu Sans'; text-anchor: start; fill: #5a5953" x="12.96" y="63.954628" transform="rotate(-0 12.96 63.954628)">Qwen2.5-72B-Instruct · full-model logical BF16 KV · conventional full attention</text>
   </g>
   <g id="text_4">
    <text style="font-weight: 700; font-size: 17px; font-family: 'DejaVu Sans'; text-anchor: middle; fill: #11110f" x="75.735" y="166.62445" transform="rotate(-0 75.735 166.62445)">80</text>
   </g>
   <g id="text_5">
    <text style="font-size: 8.5px; font-family: 'DejaVu Sans'; text-anchor: middle; fill: #5a5953" x="75.735" y="181.557781" transform="rotate(-0 75.735 181.557781)">layers</text>
   </g>
   <g id="text_6">
    <text style="font-size: 18px; font-family: 'DejaVu Sans'; text-anchor: middle; fill: #5a5953" x="127.35" y="163.966313" transform="rotate(-0 127.35 163.966313)">×</text>
   </g>
   <g id="text_7">
    <text style="font-weight: 700; font-size: 17px; font-family: 'DejaVu Sans'; text-anchor: middle; fill: #2f5bff" x="178.965" y="166.62445" transform="rotate(-0 178.965 166.62445)">8</text>
   </g>
   <g id="text_8">
    <text style="font-size: 8.5px; font-family: 'DejaVu Sans'; text-anchor: middle; fill: #5a5953" x="178.965" y="181.557781" transform="rotate(-0 178.965 181.557781)">KV heads</text>
   </g>
   <g id="text_9">
    <text style="font-size: 18px; font-family: 'DejaVu Sans'; text-anchor: middle; fill: #5a5953" x="230.58" y="163.966313" transform="rotate(-0 230.58 163.966313)">×</text>
   </g>
   <g id="text_10">
    <text style="font-weight: 700; font-size: 17px; font-family: 'DejaVu Sans'; text-anchor: middle; fill: #11110f" x="282.195" y="166.62445" transform="rotate(-0 282.195 166.62445)">128</text>
   </g>
   <g id="text_11">
    <text style="font-size: 8.5px; font-family: 'DejaVu Sans'; text-anchor: middle; fill: #5a5953" x="282.195" y="181.557781" transform="rotate(-0 282.195 181.557781)">head dim</text>
   </g>
   <g id="text_12">
    <text style="font-size: 18px; font-family: 'DejaVu Sans'; text-anchor: middle; fill: #5a5953" x="333.81" y="163.966313" transform="rotate(-0 333.81 163.966313)">×</text>
   </g>
   <g id="text_13">
    <text style="font-weight: 700; font-size: 17px; font-family: 'DejaVu Sans'; text-anchor: middle; fill: #11110f" x="385.425" y="166.62445" transform="rotate(-0 385.425 166.62445)">2</text>
   </g>
   <g id="text_14">
    <text style="font-size: 8.5px; font-family: 'DejaVu Sans'; text-anchor: middle; fill: #5a5953" x="385.425" y="181.557781" transform="rotate(-0 385.425 181.557781)">K + V</text>
   </g>
   <g id="text_15">
    <text style="font-size: 18px; font-family: 'DejaVu Sans'; text-anchor: middle; fill: #5a5953" x="437.04" y="163.966313" transform="rotate(-0 437.04 163.966313)">×</text>
   </g>
   <g id="text_16">
    <text style="font-weight: 700; font-size: 17px; font-family: 'DejaVu Sans'; text-anchor: middle; fill: #2f5bff" x="488.655" y="166.62445" transform="rotate(-0 488.655 166.62445)">2 B</text>
   </g>
   <g id="text_17">
    <text style="font-size: 8.5px; font-family: 'DejaVu Sans'; text-anchor: middle; fill: #5a5953" x="488.655" y="181.557781" transform="rotate(-0 488.655 181.557781)">BF16</text>
   </g>
   <g id="text_18">
    <text style="font-weight: 700; font-size: 18px; font-family: 'DejaVu Sans'; text-anchor: middle; fill: #11110f" x="291.96" y="227.999513" transform="rotate(-0 291.96 227.999513)">= 327,680 bytes/token</text>
   </g>
   <g id="text_19">
    <text style="font-weight: 700; font-size: 22px; font-family: 'DejaVu Sans'; text-anchor: middle; fill: #2f5bff" x="291.96" y="256.458713" transform="rotate(-0 291.96 256.458713)">= 320 KiB/token</text>
   </g>
   <g id="text_20">
    <text style="font-size: 10px; font-family: 'DejaVu Sans'; text-anchor: middle; fill: #5a5953" x="291.96" y="305.245913" transform="rotate(-0 291.96 305.245913)">mKV/token = 2 × L × nKV × dh × bKV</text>
   </g>
  </g>
 </g>
 <defs>
  <clipPath id="p55bc22e424">
   <rect x="12.96" y="46.063913" width="558" height="304.92"/>
  </clipPath>
 </defs>
</svg>
