<?xml version="1.0" encoding="utf-8" standalone="no"?>
<!DOCTYPE svg PUBLIC "-//W3C//DTD SVG 1.1//EN"
  "http://www.w3.org/Graphics/SVG/1.1/DTD/svg11.dtd">
<svg xmlns:xlink="http://www.w3.org/1999/xlink" width="684pt" height="402.48pt" viewBox="0 0 684 402.48" xmlns="http://www.w3.org/2000/svg" version="1.1">
 <metadata>
  <rdf:RDF xmlns:dc="http://purl.org/dc/elements/1.1/" xmlns:cc="http://creativecommons.org/ns#" xmlns:rdf="http://www.w3.org/1999/02/22-rdf-syntax-ns#">
   <cc:Work>
    <dc:type rdf:resource="http://purl.org/dc/dcmitype/StillImage"/>
    <dc:date>2026-08-10T13:56:02.615226</dc:date>
    <dc:format>image/svg+xml</dc:format>
    <dc:creator>
     <cc:Agent>
      <dc:title>Matplotlib v3.10.8, https://matplotlib.org/</dc:title>
     </cc:Agent>
    </dc:creator>
   </cc:Work>
  </rdf:RDF>
 </metadata>
 <defs>
  <style type="text/css">*{stroke-linejoin: round; stroke-linecap: butt}</style>
 </defs>
 <g id="figure_1">
  <g id="patch_1">
   <path d="M 0 402.48 
L 684 402.48 
L 684 -0 
L 0 -0 
z
" style="fill: #f2efe7"/>
  </g>
  <g id="axes_1">
   <g id="patch_2">
    <path d="M 256.9608 112.75776 
L 427.0392 112.75776 
Q 437.0832 112.75776 437.0832 106.93656 
L 437.0832 70.45704 
Q 437.0832 64.63584 427.0392 64.63584 
L 256.9608 64.63584 
Q 246.9168 64.63584 246.9168 70.45704 
L 246.9168 106.93656 
Q 246.9168 112.75776 256.9608 112.75776 
z
" clip-path="url(#p954732678e)" style="fill: #f2efe7; stroke: #2f5bff; stroke-width: 2; stroke-linejoin: miter"/>
   </g>
   <g id="patch_3">
    <path d="M 62.7768 205.89696 
L 226.1592 205.89696 
Q 236.2032 205.89696 236.2032 200.07576 
L 236.2032 163.59624 
Q 236.2032 157.77504 226.1592 157.77504 
L 62.7768 157.77504 
Q 52.7328 157.77504 52.7328 163.59624 
L 52.7328 200.07576 
Q 52.7328 205.89696 62.7768 205.89696 
z
" clip-path="url(#p954732678e)" style="fill: #f2efe7; stroke: #c9c3b7; stroke-width: 1.5; stroke-linejoin: miter"/>
   </g>
   <g id="patch_4">
    <path d="M 260.3088 205.89696 
L 423.6912 205.89696 
Q 433.7352 205.89696 433.7352 200.07576 
L 433.7352 163.59624 
Q 433.7352 157.77504 423.6912 157.77504 
L 260.3088 157.77504 
Q 250.2648 157.77504 250.2648 163.59624 
L 250.2648 200.07576 
Q 250.2648 205.89696 260.3088 205.89696 
z
" clip-path="url(#p954732678e)" style="fill: #f2efe7; stroke: #c9c3b7; stroke-width: 1.5; stroke-linejoin: miter"/>
   </g>
   <g id="patch_5">
    <path d="M 457.8408 205.89696 
L 621.2232 205.89696 
Q 631.2672 205.89696 631.2672 200.07576 
L 631.2672 163.59624 
Q 631.2672 157.77504 621.2232 157.77504 
L 457.8408 157.77504 
Q 447.7968 157.77504 447.7968 163.59624 
L 447.7968 200.07576 
Q 447.7968 205.89696 457.8408 205.89696 
z
" clip-path="url(#p954732678e)" style="fill: #f2efe7; stroke: #c9c3b7; stroke-width: 1.5; stroke-linejoin: miter"/>
   </g>
   <g id="patch_6">
    <path d="M 340.073991 108.630549 
Q 243.236549 135.265699 147.692708 161.545044 
" clip-path="url(#p954732678e)" style="fill: none; stroke: #5a5953; stroke-width: 1.2; stroke-linecap: round"/>
    <path d="M 153.834753 162.759656 
L 147.692708 161.545044 
L 152.349625 157.360175 
z
" clip-path="url(#p954732678e)" style="fill: #5a5953; stroke: #5a5953; stroke-width: 1.2; stroke-linecap: round"/>
   </g>
   <g id="patch_7">
    <path d="M 342 110.100416 
Q 342 135.264868 342 159.08768 
" clip-path="url(#p954732678e)" style="fill: none; stroke: #5a5953; stroke-width: 1.2; stroke-linecap: round"/>
    <path d="M 344.8 153.48768 
L 342 159.08768 
L 339.2 153.48768 
z
" clip-path="url(#p954732678e)" style="fill: #5a5953; stroke: #5a5953; stroke-width: 1.2; stroke-linecap: round"/>
   </g>
   <g id="patch_8">
    <path d="M 343.926009 108.630549 
Q 440.763451 135.265699 536.307292 161.545044 
" clip-path="url(#p954732678e)" style="fill: none; stroke: #5a5953; stroke-width: 1.2; stroke-linecap: round"/>
    <path d="M 531.650375 157.360175 
L 536.307292 161.545044 
L 530.165247 162.759656 
z
" clip-path="url(#p954732678e)" style="fill: #5a5953; stroke: #5a5953; stroke-width: 1.2; stroke-linecap: round"/>
   </g>
   <g id="patch_9">
    <path d="M 35.9928 310.67856 
L 152.5032 310.67856 
Q 162.5472 310.67856 162.5472 304.85736 
L 162.5472 272.25864 
Q 162.5472 266.43744 152.5032 266.43744 
L 35.9928 266.43744 
Q 25.9488 266.43744 25.9488 272.25864 
L 25.9488 304.85736 
Q 25.9488 310.67856 35.9928 310.67856 
z
" clip-path="url(#p954732678e)" style="fill: #f2efe7; stroke: #c9c3b7; stroke-width: 1.5; stroke-linejoin: miter"/>
   </g>
   <g id="patch_10">
    <path d="M 169.9128 310.67856 
L 286.4232 310.67856 
Q 296.4672 310.67856 296.4672 304.85736 
L 296.4672 272.25864 
Q 296.4672 266.43744 286.4232 266.43744 
L 169.9128 266.43744 
Q 159.8688 266.43744 159.8688 272.25864 
L 159.8688 304.85736 
Q 159.8688 310.67856 169.9128 310.67856 
z
" clip-path="url(#p954732678e)" style="fill: #f2efe7; stroke: #c9c3b7; stroke-width: 1.5; stroke-linejoin: miter"/>
   </g>
   <g id="patch_11">
    <path d="M 303.8328 310.67856 
L 393.5592 310.67856 
Q 403.6032 310.67856 403.6032 304.85736 
L 403.6032 272.25864 
Q 403.6032 266.43744 393.5592 266.43744 
L 303.8328 266.43744 
Q 293.7888 266.43744 293.7888 272.25864 
L 293.7888 304.85736 
Q 293.7888 310.67856 303.8328 310.67856 
z
" clip-path="url(#p954732678e)" style="fill: #f2efe7; stroke: #c9c3b7; stroke-width: 1.5; stroke-linejoin: miter"/>
   </g>
   <g id="patch_12">
    <path d="M 410.9688 310.67856 
L 500.6952 310.67856 
Q 510.7392 310.67856 510.7392 304.85736 
L 510.7392 272.25864 
Q 510.7392 266.43744 500.6952 266.43744 
L 410.9688 266.43744 
Q 400.9248 266.43744 400.9248 272.25864 
L 400.9248 304.85736 
Q 400.9248 310.67856 410.9688 310.67856 
z
" clip-path="url(#p954732678e)" style="fill: #f2efe7; stroke: #c9c3b7; stroke-width: 1.5; stroke-linejoin: miter"/>
   </g>
   <g id="patch_13">
    <path d="M 518.1048 310.67856 
L 634.6152 310.67856 
Q 644.6592 310.67856 644.6592 304.85736 
L 644.6592 272.25864 
Q 644.6592 266.43744 634.6152 266.43744 
L 518.1048 266.43744 
Q 508.0608 266.43744 508.0608 272.25864 
L 508.0608 304.85736 
Q 508.0608 310.67856 518.1048 310.67856 
z
" clip-path="url(#p954732678e)" style="fill: #f2efe7; stroke: #c9c3b7; stroke-width: 1.5; stroke-linejoin: miter"/>
   </g>
   <g id="patch_14">
    <path d="M 143.301697 202.86229 
Q 119.35793 236.167297 96.197318 268.382962 
" clip-path="url(#p954732678e)" style="fill: none; stroke: #5a5953; stroke-width: 1.2; stroke-linecap: round"/>
    <path d="M 101.739657 265.470492 
L 96.197318 268.382962 
L 97.192746 262.201609 
z
" clip-path="url(#p954732678e)" style="fill: #5a5953; stroke: #5a5953; stroke-width: 1.2; stroke-linecap: round"/>
   </g>
   <g id="patch_15">
    <path d="M 146.003147 202.521204 
Q 186.317033 236.166393 225.600875 268.951927 
" clip-path="url(#p954732678e)" style="fill: none; stroke: #5a5953; stroke-width: 1.2; stroke-linecap: round"/>
    <path d="M 223.095572 263.21403 
L 225.600875 268.951927 
L 219.507376 267.513431 
z
" clip-path="url(#p954732678e)" style="fill: #5a5953; stroke: #5a5953; stroke-width: 1.2; stroke-linecap: round"/>
   </g>
   <g id="patch_16">
    <path d="M 342.190859 203.231089 
Q 345.347941 236.166582 348.377004 267.766556 
" clip-path="url(#p954732678e)" style="fill: none; stroke: #5a5953; stroke-width: 1.2; stroke-linecap: round"/>
    <path d="M 350.629881 261.924934 
L 348.377004 267.766556 
L 345.055433 262.459281 
z
" clip-path="url(#p954732678e)" style="fill: #5a5953; stroke: #5a5953; stroke-width: 1.2; stroke-linecap: round"/>
   </g>
   <g id="patch_17">
    <path d="M 343.705674 202.286707 
Q 398.915092 236.166643 452.981012 269.344856 
" clip-path="url(#p954732678e)" style="fill: none; stroke: #5a5953; stroke-width: 1.2; stroke-linecap: round"/>
    <path d="M 449.67255 264.0294 
L 452.981012 269.344856 
L 446.74357 268.802352 
z
" clip-path="url(#p954732678e)" style="fill: #5a5953; stroke: #5a5953; stroke-width: 1.2; stroke-linecap: round"/>
   </g>
   <g id="patch_18">
    <path d="M 343.913187 201.810253 
Q 459.177169 236.166356 573.155409 270.139225 
" clip-path="url(#p954732678e)" style="fill: none; stroke: #5a5953; stroke-width: 1.2; stroke-linecap: round"/>
    <path d="M 568.588539 265.85627 
L 573.155409 270.139225 
L 566.988923 271.222948 
z
" clip-path="url(#p954732678e)" style="fill: #5a5953; stroke: #5a5953; stroke-width: 1.2; stroke-linecap: round"/>
   </g>
   <g id="text_1">
    <!-- FIGURE 01  /  THE AI DEPLOYMENT IS A GRAPH -->
    <g style="fill: #11110f" transform="translate(33.984 30.4848) scale(0.17 -0.17)">
     <defs>
      <path id="DejaVuSans-Bold-46" d="M 588 4666 
L 3834 4666 
L 3834 3756 
L 1791 3756 
L 1791 2888 
L 3713 2888 
L 3713 1978 
L 1791 1978 
L 1791 0 
L 588 0 
L 588 4666 
z
" transform="scale(0.015625)"/>
      <path id="DejaVuSans-Bold-49" d="M 588 4666 
L 1791 4666 
L 1791 0 
L 588 0 
L 588 4666 
z
" transform="scale(0.015625)"/>
      <path id="DejaVuSans-Bold-47" d="M 4781 347 
Q 4331 128 3847 18 
Q 3363 -91 2847 -91 
Q 1681 -91 1000 561 
Q 319 1213 319 2328 
Q 319 3456 1012 4103 
Q 1706 4750 2913 4750 
Q 3378 4750 3804 4662 
Q 4231 4575 4609 4403 
L 4609 3438 
Q 4219 3659 3833 3768 
Q 3447 3878 3059 3878 
Q 2341 3878 1952 3476 
Q 1563 3075 1563 2328 
Q 1563 1588 1938 1184 
Q 2313 781 3003 781 
Q 3191 781 3352 804 
Q 3513 828 3641 878 
L 3641 1784 
L 2906 1784 
L 2906 2591 
L 4781 2591 
L 4781 347 
z
" transform="scale(0.015625)"/>
      <path id="DejaVuSans-Bold-55" d="M 588 4666 
L 1791 4666 
L 1791 1869 
Q 1791 1291 1980 1042 
Q 2169 794 2597 794 
Q 3028 794 3217 1042 
Q 3406 1291 3406 1869 
L 3406 4666 
L 4609 4666 
L 4609 1869 
Q 4609 878 4112 393 
Q 3616 -91 2597 -91 
Q 1581 -91 1084 393 
Q 588 878 588 1869 
L 588 4666 
z
" transform="scale(0.015625)"/>
      <path id="DejaVuSans-Bold-52" d="M 2297 2597 
Q 2675 2597 2839 2737 
Q 3003 2878 3003 3200 
Q 3003 3519 2839 3656 
Q 2675 3794 2297 3794 
L 1791 3794 
L 1791 2597 
L 2297 2597 
z
M 1791 1766 
L 1791 0 
L 588 0 
L 588 4666 
L 2425 4666 
Q 3347 4666 3776 4356 
Q 4206 4047 4206 3378 
Q 4206 2916 3982 2619 
Q 3759 2322 3309 2181 
Q 3556 2125 3751 1926 
Q 3947 1728 4147 1325 
L 4800 0 
L 3519 0 
L 2950 1159 
Q 2778 1509 2601 1637 
Q 2425 1766 2131 1766 
L 1791 1766 
z
" transform="scale(0.015625)"/>
      <path id="DejaVuSans-Bold-45" d="M 588 4666 
L 3834 4666 
L 3834 3756 
L 1791 3756 
L 1791 2888 
L 3713 2888 
L 3713 1978 
L 1791 1978 
L 1791 909 
L 3903 909 
L 3903 0 
L 588 0 
L 588 4666 
z
" transform="scale(0.015625)"/>
      <path id="DejaVuSans-Bold-20" transform="scale(0.015625)"/>
      <path id="DejaVuSans-Bold-30" d="M 2944 2338 
Q 2944 3213 2780 3570 
Q 2616 3928 2228 3928 
Q 1841 3928 1675 3570 
Q 1509 3213 1509 2338 
Q 1509 1453 1675 1090 
Q 1841 728 2228 728 
Q 2613 728 2778 1090 
Q 2944 1453 2944 2338 
z
M 4147 2328 
Q 4147 1169 3647 539 
Q 3147 -91 2228 -91 
Q 1306 -91 806 539 
Q 306 1169 306 2328 
Q 306 3491 806 4120 
Q 1306 4750 2228 4750 
Q 3147 4750 3647 4120 
Q 4147 3491 4147 2328 
z
" transform="scale(0.015625)"/>
      <path id="DejaVuSans-Bold-31" d="M 750 831 
L 1813 831 
L 1813 3847 
L 722 3622 
L 722 4441 
L 1806 4666 
L 2950 4666 
L 2950 831 
L 4013 831 
L 4013 0 
L 750 0 
L 750 831 
z
" transform="scale(0.015625)"/>
      <path id="DejaVuSans-Bold-2f" d="M 1644 4666 
L 2338 4666 
L 691 -594 
L 0 -594 
L 1644 4666 
z
" transform="scale(0.015625)"/>
      <path id="DejaVuSans-Bold-54" d="M 31 4666 
L 4331 4666 
L 4331 3756 
L 2784 3756 
L 2784 0 
L 1581 0 
L 1581 3756 
L 31 3756 
L 31 4666 
z
" transform="scale(0.015625)"/>
      <path id="DejaVuSans-Bold-48" d="M 588 4666 
L 1791 4666 
L 1791 2888 
L 3566 2888 
L 3566 4666 
L 4769 4666 
L 4769 0 
L 3566 0 
L 3566 1978 
L 1791 1978 
L 1791 0 
L 588 0 
L 588 4666 
z
" transform="scale(0.015625)"/>
      <path id="DejaVuSans-Bold-41" d="M 3419 850 
L 1538 850 
L 1241 0 
L 31 0 
L 1759 4666 
L 3194 4666 
L 4922 0 
L 3713 0 
L 3419 850 
z
M 1838 1716 
L 3116 1716 
L 2478 3572 
L 1838 1716 
z
" transform="scale(0.015625)"/>
      <path id="DejaVuSans-Bold-44" d="M 1791 3756 
L 1791 909 
L 2222 909 
Q 2959 909 3348 1275 
Q 3738 1641 3738 2338 
Q 3738 3031 3350 3393 
Q 2963 3756 2222 3756 
L 1791 3756 
z
M 588 4666 
L 1856 4666 
Q 2919 4666 3439 4514 
Q 3959 4363 4331 4000 
Q 4659 3684 4818 3271 
Q 4978 2859 4978 2338 
Q 4978 1809 4818 1395 
Q 4659 981 4331 666 
Q 3956 303 3431 151 
Q 2906 0 1856 0 
L 588 0 
L 588 4666 
z
" transform="scale(0.015625)"/>
      <path id="DejaVuSans-Bold-50" d="M 588 4666 
L 2584 4666 
Q 3475 4666 3951 4270 
Q 4428 3875 4428 3144 
Q 4428 2409 3951 2014 
Q 3475 1619 2584 1619 
L 1791 1619 
L 1791 0 
L 588 0 
L 588 4666 
z
M 1791 3794 
L 1791 2491 
L 2456 2491 
Q 2806 2491 2997 2661 
Q 3188 2831 3188 3144 
Q 3188 3456 2997 3625 
Q 2806 3794 2456 3794 
L 1791 3794 
z
" transform="scale(0.015625)"/>
      <path id="DejaVuSans-Bold-4c" d="M 588 4666 
L 1791 4666 
L 1791 909 
L 3903 909 
L 3903 0 
L 588 0 
L 588 4666 
z
" transform="scale(0.015625)"/>
      <path id="DejaVuSans-Bold-4f" d="M 2719 3878 
Q 2169 3878 1866 3472 
Q 1563 3066 1563 2328 
Q 1563 1594 1866 1187 
Q 2169 781 2719 781 
Q 3272 781 3575 1187 
Q 3878 1594 3878 2328 
Q 3878 3066 3575 3472 
Q 3272 3878 2719 3878 
z
M 2719 4750 
Q 3844 4750 4481 4106 
Q 5119 3463 5119 2328 
Q 5119 1197 4481 553 
Q 3844 -91 2719 -91 
Q 1597 -91 958 553 
Q 319 1197 319 2328 
Q 319 3463 958 4106 
Q 1597 4750 2719 4750 
z
" transform="scale(0.015625)"/>
      <path id="DejaVuSans-Bold-59" d="M -63 4666 
L 1253 4666 
L 2316 3003 
L 3378 4666 
L 4697 4666 
L 2919 1966 
L 2919 0 
L 1716 0 
L 1716 1966 
L -63 4666 
z
" transform="scale(0.015625)"/>
      <path id="DejaVuSans-Bold-4d" d="M 588 4666 
L 2119 4666 
L 3181 2169 
L 4250 4666 
L 5778 4666 
L 5778 0 
L 4641 0 
L 4641 3413 
L 3566 897 
L 2803 897 
L 1728 3413 
L 1728 0 
L 588 0 
L 588 4666 
z
" transform="scale(0.015625)"/>
      <path id="DejaVuSans-Bold-4e" d="M 588 4666 
L 1931 4666 
L 3628 1466 
L 3628 4666 
L 4769 4666 
L 4769 0 
L 3425 0 
L 1728 3200 
L 1728 0 
L 588 0 
L 588 4666 
z
" transform="scale(0.015625)"/>
      <path id="DejaVuSans-Bold-53" d="M 3834 4519 
L 3834 3531 
Q 3450 3703 3084 3790 
Q 2719 3878 2394 3878 
Q 1963 3878 1756 3759 
Q 1550 3641 1550 3391 
Q 1550 3203 1689 3098 
Q 1828 2994 2194 2919 
L 2706 2816 
Q 3484 2659 3812 2340 
Q 4141 2022 4141 1434 
Q 4141 663 3683 286 
Q 3225 -91 2284 -91 
Q 1841 -91 1394 -6 
Q 947 78 500 244 
L 500 1259 
Q 947 1022 1364 901 
Q 1781 781 2169 781 
Q 2563 781 2772 912 
Q 2981 1044 2981 1288 
Q 2981 1506 2839 1625 
Q 2697 1744 2272 1838 
L 1806 1941 
Q 1106 2091 782 2419 
Q 459 2747 459 3303 
Q 459 4000 909 4375 
Q 1359 4750 2203 4750 
Q 2588 4750 2994 4692 
Q 3400 4634 3834 4519 
z
" transform="scale(0.015625)"/>
     </defs>
     <use xlink:href="#DejaVuSans-Bold-46"/>
     <use xlink:href="#DejaVuSans-Bold-49" transform="translate(68.310547 0)"/>
     <use xlink:href="#DejaVuSans-Bold-47" transform="translate(105.517578 0)"/>
     <use xlink:href="#DejaVuSans-Bold-55" transform="translate(187.597656 0)"/>
     <use xlink:href="#DejaVuSans-Bold-52" transform="translate(268.798828 0)"/>
     <use xlink:href="#DejaVuSans-Bold-45" transform="translate(345.800781 0)"/>
     <use xlink:href="#DejaVuSans-Bold-20" transform="translate(414.111328 0)"/>
     <use xlink:href="#DejaVuSans-Bold-30" transform="translate(448.925781 0)"/>
     <use xlink:href="#DejaVuSans-Bold-31" transform="translate(518.505859 0)"/>
     <use xlink:href="#DejaVuSans-Bold-20" transform="translate(588.085938 0)"/>
     <use xlink:href="#DejaVuSans-Bold-20" transform="translate(622.900391 0)"/>
     <use xlink:href="#DejaVuSans-Bold-2f" transform="translate(657.714844 0)"/>
     <use xlink:href="#DejaVuSans-Bold-20" transform="translate(694.238281 0)"/>
     <use xlink:href="#DejaVuSans-Bold-20" transform="translate(729.052734 0)"/>
     <use xlink:href="#DejaVuSans-Bold-54" transform="translate(763.867188 0)"/>
     <use xlink:href="#DejaVuSans-Bold-48" transform="translate(832.080078 0)"/>
     <use xlink:href="#DejaVuSans-Bold-45" transform="translate(915.771484 0)"/>
     <use xlink:href="#DejaVuSans-Bold-20" transform="translate(984.082031 0)"/>
     <use xlink:href="#DejaVuSans-Bold-41" transform="translate(1018.896484 0)"/>
     <use xlink:href="#DejaVuSans-Bold-49" transform="translate(1096.289062 0)"/>
     <use xlink:href="#DejaVuSans-Bold-20" transform="translate(1133.496094 0)"/>
     <use xlink:href="#DejaVuSans-Bold-44" transform="translate(1168.310547 0)"/>
     <use xlink:href="#DejaVuSans-Bold-45" transform="translate(1251.318359 0)"/>
     <use xlink:href="#DejaVuSans-Bold-50" transform="translate(1319.628906 0)"/>
     <use xlink:href="#DejaVuSans-Bold-4c" transform="translate(1392.919922 0)"/>
     <use xlink:href="#DejaVuSans-Bold-4f" transform="translate(1453.015625 0)"/>
     <use xlink:href="#DejaVuSans-Bold-59" transform="translate(1534.400391 0)"/>
     <use xlink:href="#DejaVuSans-Bold-4d" transform="translate(1606.8125 0)"/>
     <use xlink:href="#DejaVuSans-Bold-45" transform="translate(1706.324219 0)"/>
     <use xlink:href="#DejaVuSans-Bold-4e" transform="translate(1774.634766 0)"/>
     <use xlink:href="#DejaVuSans-Bold-54" transform="translate(1858.326172 0)"/>
     <use xlink:href="#DejaVuSans-Bold-20" transform="translate(1926.539062 0)"/>
     <use xlink:href="#DejaVuSans-Bold-49" transform="translate(1961.353516 0)"/>
     <use xlink:href="#DejaVuSans-Bold-53" transform="translate(1998.560547 0)"/>
     <use xlink:href="#DejaVuSans-Bold-20" transform="translate(2070.582031 0)"/>
     <use xlink:href="#DejaVuSans-Bold-41" transform="translate(2105.396484 0)"/>
     <use xlink:href="#DejaVuSans-Bold-20" transform="translate(2182.789062 0)"/>
     <use xlink:href="#DejaVuSans-Bold-47" transform="translate(2217.603516 0)"/>
     <use xlink:href="#DejaVuSans-Bold-52" transform="translate(2299.683594 0)"/>
     <use xlink:href="#DejaVuSans-Bold-41" transform="translate(2376.685547 0)"/>
     <use xlink:href="#DejaVuSans-Bold-50" transform="translate(2454.078125 0)"/>
     <use xlink:href="#DejaVuSans-Bold-48" transform="translate(2527.369141 0)"/>
    </g>
   </g>
   <g id="text_2">
    <!-- What did we actually deploy? -->
    <g style="fill: #5a5953" transform="translate(33.984 49.8888) scale(0.12 -0.12)">
     <defs>
      <path id="DejaVuSans-57" d="M 213 4666 
L 850 4666 
L 1831 722 
L 2809 4666 
L 3519 4666 
L 4500 722 
L 5478 4666 
L 6119 4666 
L 4947 0 
L 4153 0 
L 3169 4050 
L 2175 0 
L 1381 0 
L 213 4666 
z
" transform="scale(0.015625)"/>
      <path id="DejaVuSans-68" d="M 3513 2113 
L 3513 0 
L 2938 0 
L 2938 2094 
Q 2938 2591 2744 2837 
Q 2550 3084 2163 3084 
Q 1697 3084 1428 2787 
Q 1159 2491 1159 1978 
L 1159 0 
L 581 0 
L 581 4863 
L 1159 4863 
L 1159 2956 
Q 1366 3272 1645 3428 
Q 1925 3584 2291 3584 
Q 2894 3584 3203 3211 
Q 3513 2838 3513 2113 
z
" transform="scale(0.015625)"/>
      <path id="DejaVuSans-61" d="M 2194 1759 
Q 1497 1759 1228 1600 
Q 959 1441 959 1056 
Q 959 750 1161 570 
Q 1363 391 1709 391 
Q 2188 391 2477 730 
Q 2766 1069 2766 1631 
L 2766 1759 
L 2194 1759 
z
M 3341 1997 
L 3341 0 
L 2766 0 
L 2766 531 
Q 2569 213 2275 61 
Q 1981 -91 1556 -91 
Q 1019 -91 701 211 
Q 384 513 384 1019 
Q 384 1609 779 1909 
Q 1175 2209 1959 2209 
L 2766 2209 
L 2766 2266 
Q 2766 2663 2505 2880 
Q 2244 3097 1772 3097 
Q 1472 3097 1187 3025 
Q 903 2953 641 2809 
L 641 3341 
Q 956 3463 1253 3523 
Q 1550 3584 1831 3584 
Q 2591 3584 2966 3190 
Q 3341 2797 3341 1997 
z
" transform="scale(0.015625)"/>
      <path id="DejaVuSans-74" d="M 1172 4494 
L 1172 3500 
L 2356 3500 
L 2356 3053 
L 1172 3053 
L 1172 1153 
Q 1172 725 1289 603 
Q 1406 481 1766 481 
L 2356 481 
L 2356 0 
L 1766 0 
Q 1100 0 847 248 
Q 594 497 594 1153 
L 594 3053 
L 172 3053 
L 172 3500 
L 594 3500 
L 594 4494 
L 1172 4494 
z
" transform="scale(0.015625)"/>
      <path id="DejaVuSans-20" transform="scale(0.015625)"/>
      <path id="DejaVuSans-64" d="M 2906 2969 
L 2906 4863 
L 3481 4863 
L 3481 0 
L 2906 0 
L 2906 525 
Q 2725 213 2448 61 
Q 2172 -91 1784 -91 
Q 1150 -91 751 415 
Q 353 922 353 1747 
Q 353 2572 751 3078 
Q 1150 3584 1784 3584 
Q 2172 3584 2448 3432 
Q 2725 3281 2906 2969 
z
M 947 1747 
Q 947 1113 1208 752 
Q 1469 391 1925 391 
Q 2381 391 2643 752 
Q 2906 1113 2906 1747 
Q 2906 2381 2643 2742 
Q 2381 3103 1925 3103 
Q 1469 3103 1208 2742 
Q 947 2381 947 1747 
z
" transform="scale(0.015625)"/>
      <path id="DejaVuSans-69" d="M 603 3500 
L 1178 3500 
L 1178 0 
L 603 0 
L 603 3500 
z
M 603 4863 
L 1178 4863 
L 1178 4134 
L 603 4134 
L 603 4863 
z
" transform="scale(0.015625)"/>
      <path id="DejaVuSans-77" d="M 269 3500 
L 844 3500 
L 1563 769 
L 2278 3500 
L 2956 3500 
L 3675 769 
L 4391 3500 
L 4966 3500 
L 4050 0 
L 3372 0 
L 2619 2869 
L 1863 0 
L 1184 0 
L 269 3500 
z
" transform="scale(0.015625)"/>
      <path id="DejaVuSans-65" d="M 3597 1894 
L 3597 1613 
L 953 1613 
Q 991 1019 1311 708 
Q 1631 397 2203 397 
Q 2534 397 2845 478 
Q 3156 559 3463 722 
L 3463 178 
Q 3153 47 2828 -22 
Q 2503 -91 2169 -91 
Q 1331 -91 842 396 
Q 353 884 353 1716 
Q 353 2575 817 3079 
Q 1281 3584 2069 3584 
Q 2775 3584 3186 3129 
Q 3597 2675 3597 1894 
z
M 3022 2063 
Q 3016 2534 2758 2815 
Q 2500 3097 2075 3097 
Q 1594 3097 1305 2825 
Q 1016 2553 972 2059 
L 3022 2063 
z
" transform="scale(0.015625)"/>
      <path id="DejaVuSans-63" d="M 3122 3366 
L 3122 2828 
Q 2878 2963 2633 3030 
Q 2388 3097 2138 3097 
Q 1578 3097 1268 2742 
Q 959 2388 959 1747 
Q 959 1106 1268 751 
Q 1578 397 2138 397 
Q 2388 397 2633 464 
Q 2878 531 3122 666 
L 3122 134 
Q 2881 22 2623 -34 
Q 2366 -91 2075 -91 
Q 1284 -91 818 406 
Q 353 903 353 1747 
Q 353 2603 823 3093 
Q 1294 3584 2113 3584 
Q 2378 3584 2631 3529 
Q 2884 3475 3122 3366 
z
" transform="scale(0.015625)"/>
      <path id="DejaVuSans-75" d="M 544 1381 
L 544 3500 
L 1119 3500 
L 1119 1403 
Q 1119 906 1312 657 
Q 1506 409 1894 409 
Q 2359 409 2629 706 
Q 2900 1003 2900 1516 
L 2900 3500 
L 3475 3500 
L 3475 0 
L 2900 0 
L 2900 538 
Q 2691 219 2414 64 
Q 2138 -91 1772 -91 
Q 1169 -91 856 284 
Q 544 659 544 1381 
z
M 1991 3584 
L 1991 3584 
z
" transform="scale(0.015625)"/>
      <path id="DejaVuSans-6c" d="M 603 4863 
L 1178 4863 
L 1178 0 
L 603 0 
L 603 4863 
z
" transform="scale(0.015625)"/>
      <path id="DejaVuSans-79" d="M 2059 -325 
Q 1816 -950 1584 -1140 
Q 1353 -1331 966 -1331 
L 506 -1331 
L 506 -850 
L 844 -850 
Q 1081 -850 1212 -737 
Q 1344 -625 1503 -206 
L 1606 56 
L 191 3500 
L 800 3500 
L 1894 763 
L 2988 3500 
L 3597 3500 
L 2059 -325 
z
" transform="scale(0.015625)"/>
      <path id="DejaVuSans-70" d="M 1159 525 
L 1159 -1331 
L 581 -1331 
L 581 3500 
L 1159 3500 
L 1159 2969 
Q 1341 3281 1617 3432 
Q 1894 3584 2278 3584 
Q 2916 3584 3314 3078 
Q 3713 2572 3713 1747 
Q 3713 922 3314 415 
Q 2916 -91 2278 -91 
Q 1894 -91 1617 61 
Q 1341 213 1159 525 
z
M 3116 1747 
Q 3116 2381 2855 2742 
Q 2594 3103 2138 3103 
Q 1681 3103 1420 2742 
Q 1159 2381 1159 1747 
Q 1159 1113 1420 752 
Q 1681 391 2138 391 
Q 2594 391 2855 752 
Q 3116 1113 3116 1747 
z
" transform="scale(0.015625)"/>
      <path id="DejaVuSans-6f" d="M 1959 3097 
Q 1497 3097 1228 2736 
Q 959 2375 959 1747 
Q 959 1119 1226 758 
Q 1494 397 1959 397 
Q 2419 397 2687 759 
Q 2956 1122 2956 1747 
Q 2956 2369 2687 2733 
Q 2419 3097 1959 3097 
z
M 1959 3584 
Q 2709 3584 3137 3096 
Q 3566 2609 3566 1747 
Q 3566 888 3137 398 
Q 2709 -91 1959 -91 
Q 1206 -91 779 398 
Q 353 888 353 1747 
Q 353 2609 779 3096 
Q 1206 3584 1959 3584 
z
" transform="scale(0.015625)"/>
      <path id="DejaVuSans-3f" d="M 1222 794 
L 1856 794 
L 1856 0 
L 1222 0 
L 1222 794 
z
M 1838 1253 
L 1241 1253 
L 1241 1734 
Q 1241 2050 1328 2253 
Q 1416 2456 1697 2725 
L 1978 3003 
Q 2156 3169 2236 3316 
Q 2316 3463 2316 3616 
Q 2316 3894 2111 4066 
Q 1906 4238 1569 4238 
Q 1322 4238 1042 4128 
Q 763 4019 459 3809 
L 459 4397 
Q 753 4575 1054 4662 
Q 1356 4750 1678 4750 
Q 2253 4750 2601 4447 
Q 2950 4144 2950 3647 
Q 2950 3409 2837 3195 
Q 2725 2981 2444 2713 
L 2169 2444 
Q 2022 2297 1961 2214 
Q 1900 2131 1875 2053 
Q 1856 1988 1847 1894 
Q 1838 1800 1838 1638 
L 1838 1253 
z
" transform="scale(0.015625)"/>
     </defs>
     <use xlink:href="#DejaVuSans-57"/>
     <use xlink:href="#DejaVuSans-68" transform="translate(98.876953 0)"/>
     <use xlink:href="#DejaVuSans-61" transform="translate(162.255859 0)"/>
     <use xlink:href="#DejaVuSans-74" transform="translate(223.535156 0)"/>
     <use xlink:href="#DejaVuSans-20" transform="translate(262.744141 0)"/>
     <use xlink:href="#DejaVuSans-64" transform="translate(294.53125 0)"/>
     <use xlink:href="#DejaVuSans-69" transform="translate(358.007812 0)"/>
     <use xlink:href="#DejaVuSans-64" transform="translate(385.791016 0)"/>
     <use xlink:href="#DejaVuSans-20" transform="translate(449.267578 0)"/>
     <use xlink:href="#DejaVuSans-77" transform="translate(481.054688 0)"/>
     <use xlink:href="#DejaVuSans-65" transform="translate(562.841797 0)"/>
     <use xlink:href="#DejaVuSans-20" transform="translate(624.365234 0)"/>
     <use xlink:href="#DejaVuSans-61" transform="translate(656.152344 0)"/>
     <use xlink:href="#DejaVuSans-63" transform="translate(717.431641 0)"/>
     <use xlink:href="#DejaVuSans-74" transform="translate(772.412109 0)"/>
     <use xlink:href="#DejaVuSans-75" transform="translate(811.621094 0)"/>
     <use xlink:href="#DejaVuSans-61" transform="translate(875 0)"/>
     <use xlink:href="#DejaVuSans-6c" transform="translate(936.279297 0)"/>
     <use xlink:href="#DejaVuSans-6c" transform="translate(964.0625 0)"/>
     <use xlink:href="#DejaVuSans-79" transform="translate(991.845703 0)"/>
     <use xlink:href="#DejaVuSans-20" transform="translate(1051.025391 0)"/>
     <use xlink:href="#DejaVuSans-64" transform="translate(1082.8125 0)"/>
     <use xlink:href="#DejaVuSans-65" transform="translate(1146.289062 0)"/>
     <use xlink:href="#DejaVuSans-70" transform="translate(1207.8125 0)"/>
     <use xlink:href="#DejaVuSans-6c" transform="translate(1271.289062 0)"/>
     <use xlink:href="#DejaVuSans-6f" transform="translate(1299.072266 0)"/>
     <use xlink:href="#DejaVuSans-79" transform="translate(1360.253906 0)"/>
     <use xlink:href="#DejaVuSans-3f" transform="translate(1419.433594 0)"/>
    </g>
   </g>
   <g id="text_3">
    <!-- INFERENCE SERVICE -->
    <g style="fill: #11110f" transform="translate(273.800625 92.00805) scale(0.12 -0.12)">
     <defs>
      <path id="DejaVuSans-Bold-43" d="M 4288 256 
Q 3956 84 3597 -3 
Q 3238 -91 2847 -91 
Q 1681 -91 1000 561 
Q 319 1213 319 2328 
Q 319 3447 1000 4098 
Q 1681 4750 2847 4750 
Q 3238 4750 3597 4662 
Q 3956 4575 4288 4403 
L 4288 3438 
Q 3953 3666 3628 3772 
Q 3303 3878 2944 3878 
Q 2300 3878 1931 3465 
Q 1563 3053 1563 2328 
Q 1563 1606 1931 1193 
Q 2300 781 2944 781 
Q 3303 781 3628 887 
Q 3953 994 4288 1222 
L 4288 256 
z
" transform="scale(0.015625)"/>
      <path id="DejaVuSans-Bold-56" d="M 31 4666 
L 1241 4666 
L 2478 1222 
L 3713 4666 
L 4922 4666 
L 3194 0 
L 1759 0 
L 31 4666 
z
" transform="scale(0.015625)"/>
     </defs>
     <use xlink:href="#DejaVuSans-Bold-49"/>
     <use xlink:href="#DejaVuSans-Bold-4e" transform="translate(37.207031 0)"/>
     <use xlink:href="#DejaVuSans-Bold-46" transform="translate(120.898438 0)"/>
     <use xlink:href="#DejaVuSans-Bold-45" transform="translate(189.208984 0)"/>
     <use xlink:href="#DejaVuSans-Bold-52" transform="translate(257.519531 0)"/>
     <use xlink:href="#DejaVuSans-Bold-45" transform="translate(334.521484 0)"/>
     <use xlink:href="#DejaVuSans-Bold-4e" transform="translate(402.832031 0)"/>
     <use xlink:href="#DejaVuSans-Bold-43" transform="translate(486.523438 0)"/>
     <use xlink:href="#DejaVuSans-Bold-45" transform="translate(559.912109 0)"/>
     <use xlink:href="#DejaVuSans-Bold-20" transform="translate(628.222656 0)"/>
     <use xlink:href="#DejaVuSans-Bold-53" transform="translate(663.037109 0)"/>
     <use xlink:href="#DejaVuSans-Bold-45" transform="translate(735.058594 0)"/>
     <use xlink:href="#DejaVuSans-Bold-52" transform="translate(803.369141 0)"/>
     <use xlink:href="#DejaVuSans-Bold-56" transform="translate(880.371094 0)"/>
     <use xlink:href="#DejaVuSans-Bold-49" transform="translate(957.763672 0)"/>
     <use xlink:href="#DejaVuSans-Bold-43" transform="translate(994.970703 0)"/>
     <use xlink:href="#DejaVuSans-Bold-45" transform="translate(1068.359375 0)"/>
    </g>
   </g>
   <g id="text_4">
    <!-- SERVING IMAGE -->
    <g style="fill: #11110f" transform="translate(90.648 185.14725) scale(0.12 -0.12)">
     <use xlink:href="#DejaVuSans-Bold-53"/>
     <use xlink:href="#DejaVuSans-Bold-45" transform="translate(72.021484 0)"/>
     <use xlink:href="#DejaVuSans-Bold-52" transform="translate(140.332031 0)"/>
     <use xlink:href="#DejaVuSans-Bold-56" transform="translate(217.333984 0)"/>
     <use xlink:href="#DejaVuSans-Bold-49" transform="translate(294.726562 0)"/>
     <use xlink:href="#DejaVuSans-Bold-4e" transform="translate(331.933594 0)"/>
     <use xlink:href="#DejaVuSans-Bold-47" transform="translate(415.625 0)"/>
     <use xlink:href="#DejaVuSans-Bold-20" transform="translate(497.705078 0)"/>
     <use xlink:href="#DejaVuSans-Bold-49" transform="translate(532.519531 0)"/>
     <use xlink:href="#DejaVuSans-Bold-4d" transform="translate(569.726562 0)"/>
     <use xlink:href="#DejaVuSans-Bold-41" transform="translate(669.238281 0)"/>
     <use xlink:href="#DejaVuSans-Bold-47" transform="translate(746.630859 0)"/>
     <use xlink:href="#DejaVuSans-Bold-45" transform="translate(828.710938 0)"/>
    </g>
   </g>
   <g id="text_5">
    <!-- MODEL SNAPSHOT -->
    <g style="fill: #11110f" transform="translate(279.016875 185.14725) scale(0.12 -0.12)">
     <use xlink:href="#DejaVuSans-Bold-4d"/>
     <use xlink:href="#DejaVuSans-Bold-4f" transform="translate(99.511719 0)"/>
     <use xlink:href="#DejaVuSans-Bold-44" transform="translate(184.521484 0)"/>
     <use xlink:href="#DejaVuSans-Bold-45" transform="translate(267.529297 0)"/>
     <use xlink:href="#DejaVuSans-Bold-4c" transform="translate(335.839844 0)"/>
     <use xlink:href="#DejaVuSans-Bold-20" transform="translate(399.560547 0)"/>
     <use xlink:href="#DejaVuSans-Bold-53" transform="translate(434.375 0)"/>
     <use xlink:href="#DejaVuSans-Bold-4e" transform="translate(506.396484 0)"/>
     <use xlink:href="#DejaVuSans-Bold-41" transform="translate(590.087891 0)"/>
     <use xlink:href="#DejaVuSans-Bold-50" transform="translate(667.480469 0)"/>
     <use xlink:href="#DejaVuSans-Bold-53" transform="translate(740.771484 0)"/>
     <use xlink:href="#DejaVuSans-Bold-48" transform="translate(812.792969 0)"/>
     <use xlink:href="#DejaVuSans-Bold-4f" transform="translate(896.484375 0)"/>
     <use xlink:href="#DejaVuSans-Bold-54" transform="translate(981.494141 0)"/>
    </g>
   </g>
   <g id="text_6">
    <!-- STARTUP / POLICY -->
    <g style="fill: #11110f" transform="translate(478.555125 185.14725) scale(0.12 -0.12)">
     <use xlink:href="#DejaVuSans-Bold-53"/>
     <use xlink:href="#DejaVuSans-Bold-54" transform="translate(72.021484 0)"/>
     <use xlink:href="#DejaVuSans-Bold-41" transform="translate(132.484375 0)"/>
     <use xlink:href="#DejaVuSans-Bold-52" transform="translate(209.876953 0)"/>
     <use xlink:href="#DejaVuSans-Bold-54" transform="translate(282.378906 0)"/>
     <use xlink:href="#DejaVuSans-Bold-55" transform="translate(350.591797 0)"/>
     <use xlink:href="#DejaVuSans-Bold-50" transform="translate(431.792969 0)"/>
     <use xlink:href="#DejaVuSans-Bold-20" transform="translate(505.083984 0)"/>
     <use xlink:href="#DejaVuSans-Bold-2f" transform="translate(539.898438 0)"/>
     <use xlink:href="#DejaVuSans-Bold-20" transform="translate(576.421875 0)"/>
     <use xlink:href="#DejaVuSans-Bold-50" transform="translate(611.236328 0)"/>
     <use xlink:href="#DejaVuSans-Bold-4f" transform="translate(684.527344 0)"/>
     <use xlink:href="#DejaVuSans-Bold-4c" transform="translate(769.537109 0)"/>
     <use xlink:href="#DejaVuSans-Bold-49" transform="translate(833.257812 0)"/>
     <use xlink:href="#DejaVuSans-Bold-43" transform="translate(870.464844 0)"/>
     <use xlink:href="#DejaVuSans-Bold-59" transform="translate(943.853516 0)"/>
    </g>
   </g>
   <g id="text_7">
    <!-- BASE IMAGE -->
    <g style="fill: #11110f" transform="translate(63.319094 291.317375) scale(0.1 -0.1)">
     <defs>
      <path id="DejaVuSans-42" d="M 1259 2228 
L 1259 519 
L 2272 519 
Q 2781 519 3026 730 
Q 3272 941 3272 1375 
Q 3272 1813 3026 2020 
Q 2781 2228 2272 2228 
L 1259 2228 
z
M 1259 4147 
L 1259 2741 
L 2194 2741 
Q 2656 2741 2882 2914 
Q 3109 3088 3109 3444 
Q 3109 3797 2882 3972 
Q 2656 4147 2194 4147 
L 1259 4147 
z
M 628 4666 
L 2241 4666 
Q 2963 4666 3353 4366 
Q 3744 4066 3744 3513 
Q 3744 3084 3544 2831 
Q 3344 2578 2956 2516 
Q 3422 2416 3680 2098 
Q 3938 1781 3938 1306 
Q 3938 681 3513 340 
Q 3088 0 2303 0 
L 628 0 
L 628 4666 
z
" transform="scale(0.015625)"/>
      <path id="DejaVuSans-41" d="M 2188 4044 
L 1331 1722 
L 3047 1722 
L 2188 4044 
z
M 1831 4666 
L 2547 4666 
L 4325 0 
L 3669 0 
L 3244 1197 
L 1141 1197 
L 716 0 
L 50 0 
L 1831 4666 
z
" transform="scale(0.015625)"/>
      <path id="DejaVuSans-53" d="M 3425 4513 
L 3425 3897 
Q 3066 4069 2747 4153 
Q 2428 4238 2131 4238 
Q 1616 4238 1336 4038 
Q 1056 3838 1056 3469 
Q 1056 3159 1242 3001 
Q 1428 2844 1947 2747 
L 2328 2669 
Q 3034 2534 3370 2195 
Q 3706 1856 3706 1288 
Q 3706 609 3251 259 
Q 2797 -91 1919 -91 
Q 1588 -91 1214 -16 
Q 841 59 441 206 
L 441 856 
Q 825 641 1194 531 
Q 1563 422 1919 422 
Q 2459 422 2753 634 
Q 3047 847 3047 1241 
Q 3047 1584 2836 1778 
Q 2625 1972 2144 2069 
L 1759 2144 
Q 1053 2284 737 2584 
Q 422 2884 422 3419 
Q 422 4038 858 4394 
Q 1294 4750 2059 4750 
Q 2388 4750 2728 4690 
Q 3069 4631 3425 4513 
z
" transform="scale(0.015625)"/>
      <path id="DejaVuSans-45" d="M 628 4666 
L 3578 4666 
L 3578 4134 
L 1259 4134 
L 1259 2753 
L 3481 2753 
L 3481 2222 
L 1259 2222 
L 1259 531 
L 3634 531 
L 3634 0 
L 628 0 
L 628 4666 
z
" transform="scale(0.015625)"/>
      <path id="DejaVuSans-49" d="M 628 4666 
L 1259 4666 
L 1259 0 
L 628 0 
L 628 4666 
z
" transform="scale(0.015625)"/>
      <path id="DejaVuSans-4d" d="M 628 4666 
L 1569 4666 
L 2759 1491 
L 3956 4666 
L 4897 4666 
L 4897 0 
L 4281 0 
L 4281 4097 
L 3078 897 
L 2444 897 
L 1241 4097 
L 1241 0 
L 628 0 
L 628 4666 
z
" transform="scale(0.015625)"/>
      <path id="DejaVuSans-47" d="M 3809 666 
L 3809 1919 
L 2778 1919 
L 2778 2438 
L 4434 2438 
L 4434 434 
Q 4069 175 3628 42 
Q 3188 -91 2688 -91 
Q 1594 -91 976 548 
Q 359 1188 359 2328 
Q 359 3472 976 4111 
Q 1594 4750 2688 4750 
Q 3144 4750 3555 4637 
Q 3966 4525 4313 4306 
L 4313 3634 
Q 3963 3931 3569 4081 
Q 3175 4231 2741 4231 
Q 1884 4231 1454 3753 
Q 1025 3275 1025 2328 
Q 1025 1384 1454 906 
Q 1884 428 2741 428 
Q 3075 428 3337 486 
Q 3600 544 3809 666 
z
" transform="scale(0.015625)"/>
     </defs>
     <use xlink:href="#DejaVuSans-42"/>
     <use xlink:href="#DejaVuSans-41" transform="translate(68.603516 0)"/>
     <use xlink:href="#DejaVuSans-53" transform="translate(137.011719 0)"/>
     <use xlink:href="#DejaVuSans-45" transform="translate(200.488281 0)"/>
     <use xlink:href="#DejaVuSans-20" transform="translate(263.671875 0)"/>
     <use xlink:href="#DejaVuSans-49" transform="translate(295.458984 0)"/>
     <use xlink:href="#DejaVuSans-4d" transform="translate(324.951172 0)"/>
     <use xlink:href="#DejaVuSans-41" transform="translate(411.230469 0)"/>
     <use xlink:href="#DejaVuSans-47" transform="translate(477.888672 0)"/>
     <use xlink:href="#DejaVuSans-45" transform="translate(555.378906 0)"/>
    </g>
   </g>
   <g id="text_8">
    <!-- RUNTIME LOCK -->
    <g style="fill: #11110f" transform="translate(190.391437 291.317375) scale(0.1 -0.1)">
     <defs>
      <path id="DejaVuSans-52" d="M 2841 2188 
Q 3044 2119 3236 1894 
Q 3428 1669 3622 1275 
L 4263 0 
L 3584 0 
L 2988 1197 
Q 2756 1666 2539 1819 
Q 2322 1972 1947 1972 
L 1259 1972 
L 1259 0 
L 628 0 
L 628 4666 
L 2053 4666 
Q 2853 4666 3247 4331 
Q 3641 3997 3641 3322 
Q 3641 2881 3436 2590 
Q 3231 2300 2841 2188 
z
M 1259 4147 
L 1259 2491 
L 2053 2491 
Q 2509 2491 2742 2702 
Q 2975 2913 2975 3322 
Q 2975 3731 2742 3939 
Q 2509 4147 2053 4147 
L 1259 4147 
z
" transform="scale(0.015625)"/>
      <path id="DejaVuSans-55" d="M 556 4666 
L 1191 4666 
L 1191 1831 
Q 1191 1081 1462 751 
Q 1734 422 2344 422 
Q 2950 422 3222 751 
Q 3494 1081 3494 1831 
L 3494 4666 
L 4128 4666 
L 4128 1753 
Q 4128 841 3676 375 
Q 3225 -91 2344 -91 
Q 1459 -91 1007 375 
Q 556 841 556 1753 
L 556 4666 
z
" transform="scale(0.015625)"/>
      <path id="DejaVuSans-4e" d="M 628 4666 
L 1478 4666 
L 3547 763 
L 3547 4666 
L 4159 4666 
L 4159 0 
L 3309 0 
L 1241 3903 
L 1241 0 
L 628 0 
L 628 4666 
z
" transform="scale(0.015625)"/>
      <path id="DejaVuSans-54" d="M -19 4666 
L 3928 4666 
L 3928 4134 
L 2272 4134 
L 2272 0 
L 1638 0 
L 1638 4134 
L -19 4134 
L -19 4666 
z
" transform="scale(0.015625)"/>
      <path id="DejaVuSans-4c" d="M 628 4666 
L 1259 4666 
L 1259 531 
L 3531 531 
L 3531 0 
L 628 0 
L 628 4666 
z
" transform="scale(0.015625)"/>
      <path id="DejaVuSans-4f" d="M 2522 4238 
Q 1834 4238 1429 3725 
Q 1025 3213 1025 2328 
Q 1025 1447 1429 934 
Q 1834 422 2522 422 
Q 3209 422 3611 934 
Q 4013 1447 4013 2328 
Q 4013 3213 3611 3725 
Q 3209 4238 2522 4238 
z
M 2522 4750 
Q 3503 4750 4090 4092 
Q 4678 3434 4678 2328 
Q 4678 1225 4090 567 
Q 3503 -91 2522 -91 
Q 1538 -91 948 565 
Q 359 1222 359 2328 
Q 359 3434 948 4092 
Q 1538 4750 2522 4750 
z
" transform="scale(0.015625)"/>
      <path id="DejaVuSans-43" d="M 4122 4306 
L 4122 3641 
Q 3803 3938 3442 4084 
Q 3081 4231 2675 4231 
Q 1875 4231 1450 3742 
Q 1025 3253 1025 2328 
Q 1025 1406 1450 917 
Q 1875 428 2675 428 
Q 3081 428 3442 575 
Q 3803 722 4122 1019 
L 4122 359 
Q 3791 134 3420 21 
Q 3050 -91 2638 -91 
Q 1578 -91 968 557 
Q 359 1206 359 2328 
Q 359 3453 968 4101 
Q 1578 4750 2638 4750 
Q 3056 4750 3426 4639 
Q 3797 4528 4122 4306 
z
" transform="scale(0.015625)"/>
      <path id="DejaVuSans-4b" d="M 628 4666 
L 1259 4666 
L 1259 2694 
L 3353 4666 
L 4166 4666 
L 1850 2491 
L 4331 0 
L 3500 0 
L 1259 2247 
L 1259 0 
L 628 0 
L 628 4666 
z
" transform="scale(0.015625)"/>
     </defs>
     <use xlink:href="#DejaVuSans-52"/>
     <use xlink:href="#DejaVuSans-55" transform="translate(69.482422 0)"/>
     <use xlink:href="#DejaVuSans-4e" transform="translate(142.675781 0)"/>
     <use xlink:href="#DejaVuSans-54" transform="translate(217.480469 0)"/>
     <use xlink:href="#DejaVuSans-49" transform="translate(278.564453 0)"/>
     <use xlink:href="#DejaVuSans-4d" transform="translate(308.056641 0)"/>
     <use xlink:href="#DejaVuSans-45" transform="translate(394.335938 0)"/>
     <use xlink:href="#DejaVuSans-20" transform="translate(457.519531 0)"/>
     <use xlink:href="#DejaVuSans-4c" transform="translate(489.306641 0)"/>
     <use xlink:href="#DejaVuSans-4f" transform="translate(541.394531 0)"/>
     <use xlink:href="#DejaVuSans-43" transform="translate(620.105469 0)"/>
     <use xlink:href="#DejaVuSans-4b" transform="translate(689.929688 0)"/>
    </g>
   </g>
   <g id="text_9">
    <!-- WEIGHTS -->
    <g style="fill: #11110f" transform="translate(325.255375 291.317375) scale(0.1 -0.1)">
     <defs>
      <path id="DejaVuSans-48" d="M 628 4666 
L 1259 4666 
L 1259 2753 
L 3553 2753 
L 3553 4666 
L 4184 4666 
L 4184 0 
L 3553 0 
L 3553 2222 
L 1259 2222 
L 1259 0 
L 628 0 
L 628 4666 
z
" transform="scale(0.015625)"/>
     </defs>
     <use xlink:href="#DejaVuSans-57"/>
     <use xlink:href="#DejaVuSans-45" transform="translate(98.876953 0)"/>
     <use xlink:href="#DejaVuSans-49" transform="translate(162.060547 0)"/>
     <use xlink:href="#DejaVuSans-47" transform="translate(191.552734 0)"/>
     <use xlink:href="#DejaVuSans-48" transform="translate(269.042969 0)"/>
     <use xlink:href="#DejaVuSans-54" transform="translate(344.238281 0)"/>
     <use xlink:href="#DejaVuSans-53" transform="translate(405.322266 0)"/>
    </g>
   </g>
   <g id="text_10">
    <!-- CONFIG -->
    <g style="fill: #11110f" transform="translate(436.439031 291.317375) scale(0.1 -0.1)">
     <defs>
      <path id="DejaVuSans-46" d="M 628 4666 
L 3309 4666 
L 3309 4134 
L 1259 4134 
L 1259 2759 
L 3109 2759 
L 3109 2228 
L 1259 2228 
L 1259 0 
L 628 0 
L 628 4666 
z
" transform="scale(0.015625)"/>
     </defs>
     <use xlink:href="#DejaVuSans-43"/>
     <use xlink:href="#DejaVuSans-4f" transform="translate(69.824219 0)"/>
     <use xlink:href="#DejaVuSans-4e" transform="translate(148.535156 0)"/>
     <use xlink:href="#DejaVuSans-46" transform="translate(223.339844 0)"/>
     <use xlink:href="#DejaVuSans-49" transform="translate(280.859375 0)"/>
     <use xlink:href="#DejaVuSans-47" transform="translate(310.351562 0)"/>
    </g>
   </g>
   <g id="text_11">
    <!-- TOKENIZER / TEMPLATE -->
    <g style="fill: #11110f" transform="translate(517.108438 291.317375) scale(0.1 -0.1)">
     <defs>
      <path id="DejaVuSans-5a" d="M 359 4666 
L 4025 4666 
L 4025 4184 
L 1075 531 
L 4097 531 
L 4097 0 
L 288 0 
L 288 481 
L 3238 4134 
L 359 4134 
L 359 4666 
z
" transform="scale(0.015625)"/>
      <path id="DejaVuSans-2f" d="M 1625 4666 
L 2156 4666 
L 531 -594 
L 0 -594 
L 1625 4666 
z
" transform="scale(0.015625)"/>
      <path id="DejaVuSans-50" d="M 1259 4147 
L 1259 2394 
L 2053 2394 
Q 2494 2394 2734 2622 
Q 2975 2850 2975 3272 
Q 2975 3691 2734 3919 
Q 2494 4147 2053 4147 
L 1259 4147 
z
M 628 4666 
L 2053 4666 
Q 2838 4666 3239 4311 
Q 3641 3956 3641 3272 
Q 3641 2581 3239 2228 
Q 2838 1875 2053 1875 
L 1259 1875 
L 1259 0 
L 628 0 
L 628 4666 
z
" transform="scale(0.015625)"/>
     </defs>
     <use xlink:href="#DejaVuSans-54"/>
     <use xlink:href="#DejaVuSans-4f" transform="translate(61.083984 0)"/>
     <use xlink:href="#DejaVuSans-4b" transform="translate(139.794922 0)"/>
     <use xlink:href="#DejaVuSans-45" transform="translate(205.371094 0)"/>
     <use xlink:href="#DejaVuSans-4e" transform="translate(268.554688 0)"/>
     <use xlink:href="#DejaVuSans-49" transform="translate(343.359375 0)"/>
     <use xlink:href="#DejaVuSans-5a" transform="translate(372.851562 0)"/>
     <use xlink:href="#DejaVuSans-45" transform="translate(441.357422 0)"/>
     <use xlink:href="#DejaVuSans-52" transform="translate(504.541016 0)"/>
     <use xlink:href="#DejaVuSans-20" transform="translate(574.023438 0)"/>
     <use xlink:href="#DejaVuSans-2f" transform="translate(605.810547 0)"/>
     <use xlink:href="#DejaVuSans-20" transform="translate(639.501953 0)"/>
     <use xlink:href="#DejaVuSans-54" transform="translate(671.289062 0)"/>
     <use xlink:href="#DejaVuSans-45" transform="translate(732.373047 0)"/>
     <use xlink:href="#DejaVuSans-4d" transform="translate(795.556641 0)"/>
     <use xlink:href="#DejaVuSans-50" transform="translate(881.835938 0)"/>
     <use xlink:href="#DejaVuSans-4c" transform="translate(942.138672 0)"/>
     <use xlink:href="#DejaVuSans-41" transform="translate(1000.101562 0)"/>
     <use xlink:href="#DejaVuSans-54" transform="translate(1060.759766 0)"/>
     <use xlink:href="#DejaVuSans-45" transform="translate(1121.84375 0)"/>
    </g>
   </g>
   <g id="text_12">
    <!-- The model name is one label. The security-relevant deployment identity is the verified closure beneath it. -->
    <g style="fill: #5a5953" transform="translate(33.984 364.2336) scale(0.11 -0.11)">
     <defs>
      <path id="DejaVuSans-6d" d="M 3328 2828 
Q 3544 3216 3844 3400 
Q 4144 3584 4550 3584 
Q 5097 3584 5394 3201 
Q 5691 2819 5691 2113 
L 5691 0 
L 5113 0 
L 5113 2094 
Q 5113 2597 4934 2840 
Q 4756 3084 4391 3084 
Q 3944 3084 3684 2787 
Q 3425 2491 3425 1978 
L 3425 0 
L 2847 0 
L 2847 2094 
Q 2847 2600 2669 2842 
Q 2491 3084 2119 3084 
Q 1678 3084 1418 2786 
Q 1159 2488 1159 1978 
L 1159 0 
L 581 0 
L 581 3500 
L 1159 3500 
L 1159 2956 
Q 1356 3278 1631 3431 
Q 1906 3584 2284 3584 
Q 2666 3584 2933 3390 
Q 3200 3197 3328 2828 
z
" transform="scale(0.015625)"/>
      <path id="DejaVuSans-6e" d="M 3513 2113 
L 3513 0 
L 2938 0 
L 2938 2094 
Q 2938 2591 2744 2837 
Q 2550 3084 2163 3084 
Q 1697 3084 1428 2787 
Q 1159 2491 1159 1978 
L 1159 0 
L 581 0 
L 581 3500 
L 1159 3500 
L 1159 2956 
Q 1366 3272 1645 3428 
Q 1925 3584 2291 3584 
Q 2894 3584 3203 3211 
Q 3513 2838 3513 2113 
z
" transform="scale(0.015625)"/>
      <path id="DejaVuSans-73" d="M 2834 3397 
L 2834 2853 
Q 2591 2978 2328 3040 
Q 2066 3103 1784 3103 
Q 1356 3103 1142 2972 
Q 928 2841 928 2578 
Q 928 2378 1081 2264 
Q 1234 2150 1697 2047 
L 1894 2003 
Q 2506 1872 2764 1633 
Q 3022 1394 3022 966 
Q 3022 478 2636 193 
Q 2250 -91 1575 -91 
Q 1294 -91 989 -36 
Q 684 19 347 128 
L 347 722 
Q 666 556 975 473 
Q 1284 391 1588 391 
Q 1994 391 2212 530 
Q 2431 669 2431 922 
Q 2431 1156 2273 1281 
Q 2116 1406 1581 1522 
L 1381 1569 
Q 847 1681 609 1914 
Q 372 2147 372 2553 
Q 372 3047 722 3315 
Q 1072 3584 1716 3584 
Q 2034 3584 2315 3537 
Q 2597 3491 2834 3397 
z
" transform="scale(0.015625)"/>
      <path id="DejaVuSans-62" d="M 3116 1747 
Q 3116 2381 2855 2742 
Q 2594 3103 2138 3103 
Q 1681 3103 1420 2742 
Q 1159 2381 1159 1747 
Q 1159 1113 1420 752 
Q 1681 391 2138 391 
Q 2594 391 2855 752 
Q 3116 1113 3116 1747 
z
M 1159 2969 
Q 1341 3281 1617 3432 
Q 1894 3584 2278 3584 
Q 2916 3584 3314 3078 
Q 3713 2572 3713 1747 
Q 3713 922 3314 415 
Q 2916 -91 2278 -91 
Q 1894 -91 1617 61 
Q 1341 213 1159 525 
L 1159 0 
L 581 0 
L 581 4863 
L 1159 4863 
L 1159 2969 
z
" transform="scale(0.015625)"/>
      <path id="DejaVuSans-2e" d="M 684 794 
L 1344 794 
L 1344 0 
L 684 0 
L 684 794 
z
" transform="scale(0.015625)"/>
      <path id="DejaVuSans-72" d="M 2631 2963 
Q 2534 3019 2420 3045 
Q 2306 3072 2169 3072 
Q 1681 3072 1420 2755 
Q 1159 2438 1159 1844 
L 1159 0 
L 581 0 
L 581 3500 
L 1159 3500 
L 1159 2956 
Q 1341 3275 1631 3429 
Q 1922 3584 2338 3584 
Q 2397 3584 2469 3576 
Q 2541 3569 2628 3553 
L 2631 2963 
z
" transform="scale(0.015625)"/>
      <path id="DejaVuSans-2d" d="M 313 2009 
L 1997 2009 
L 1997 1497 
L 313 1497 
L 313 2009 
z
" transform="scale(0.015625)"/>
      <path id="DejaVuSans-76" d="M 191 3500 
L 800 3500 
L 1894 563 
L 2988 3500 
L 3597 3500 
L 2284 0 
L 1503 0 
L 191 3500 
z
" transform="scale(0.015625)"/>
      <path id="DejaVuSans-66" d="M 2375 4863 
L 2375 4384 
L 1825 4384 
Q 1516 4384 1395 4259 
Q 1275 4134 1275 3809 
L 1275 3500 
L 2222 3500 
L 2222 3053 
L 1275 3053 
L 1275 0 
L 697 0 
L 697 3053 
L 147 3053 
L 147 3500 
L 697 3500 
L 697 3744 
Q 697 4328 969 4595 
Q 1241 4863 1831 4863 
L 2375 4863 
z
" transform="scale(0.015625)"/>
     </defs>
     <use xlink:href="#DejaVuSans-54"/>
     <use xlink:href="#DejaVuSans-68" transform="translate(61.083984 0)"/>
     <use xlink:href="#DejaVuSans-65" transform="translate(124.462891 0)"/>
     <use xlink:href="#DejaVuSans-20" transform="translate(185.986328 0)"/>
     <use xlink:href="#DejaVuSans-6d" transform="translate(217.773438 0)"/>
     <use xlink:href="#DejaVuSans-6f" transform="translate(315.185547 0)"/>
     <use xlink:href="#DejaVuSans-64" transform="translate(376.367188 0)"/>
     <use xlink:href="#DejaVuSans-65" transform="translate(439.84375 0)"/>
     <use xlink:href="#DejaVuSans-6c" transform="translate(501.367188 0)"/>
     <use xlink:href="#DejaVuSans-20" transform="translate(529.150391 0)"/>
     <use xlink:href="#DejaVuSans-6e" transform="translate(560.9375 0)"/>
     <use xlink:href="#DejaVuSans-61" transform="translate(624.316406 0)"/>
     <use xlink:href="#DejaVuSans-6d" transform="translate(685.595703 0)"/>
     <use xlink:href="#DejaVuSans-65" transform="translate(783.007812 0)"/>
     <use xlink:href="#DejaVuSans-20" transform="translate(844.53125 0)"/>
     <use xlink:href="#DejaVuSans-69" transform="translate(876.318359 0)"/>
     <use xlink:href="#DejaVuSans-73" transform="translate(904.101562 0)"/>
     <use xlink:href="#DejaVuSans-20" transform="translate(956.201172 0)"/>
     <use xlink:href="#DejaVuSans-6f" transform="translate(987.988281 0)"/>
     <use xlink:href="#DejaVuSans-6e" transform="translate(1049.169922 0)"/>
     <use xlink:href="#DejaVuSans-65" transform="translate(1112.548828 0)"/>
     <use xlink:href="#DejaVuSans-20" transform="translate(1174.072266 0)"/>
     <use xlink:href="#DejaVuSans-6c" transform="translate(1205.859375 0)"/>
     <use xlink:href="#DejaVuSans-61" transform="translate(1233.642578 0)"/>
     <use xlink:href="#DejaVuSans-62" transform="translate(1294.921875 0)"/>
     <use xlink:href="#DejaVuSans-65" transform="translate(1358.398438 0)"/>
     <use xlink:href="#DejaVuSans-6c" transform="translate(1419.921875 0)"/>
     <use xlink:href="#DejaVuSans-2e" transform="translate(1447.705078 0)"/>
     <use xlink:href="#DejaVuSans-20" transform="translate(1479.492188 0)"/>
     <use xlink:href="#DejaVuSans-54" transform="translate(1511.279297 0)"/>
     <use xlink:href="#DejaVuSans-68" transform="translate(1572.363281 0)"/>
     <use xlink:href="#DejaVuSans-65" transform="translate(1635.742188 0)"/>
     <use xlink:href="#DejaVuSans-20" transform="translate(1697.265625 0)"/>
     <use xlink:href="#DejaVuSans-73" transform="translate(1729.052734 0)"/>
     <use xlink:href="#DejaVuSans-65" transform="translate(1781.152344 0)"/>
     <use xlink:href="#DejaVuSans-63" transform="translate(1842.675781 0)"/>
     <use xlink:href="#DejaVuSans-75" transform="translate(1897.65625 0)"/>
     <use xlink:href="#DejaVuSans-72" transform="translate(1961.035156 0)"/>
     <use xlink:href="#DejaVuSans-69" transform="translate(2002.148438 0)"/>
     <use xlink:href="#DejaVuSans-74" transform="translate(2029.931641 0)"/>
     <use xlink:href="#DejaVuSans-79" transform="translate(2069.140625 0)"/>
     <use xlink:href="#DejaVuSans-2d" transform="translate(2126.570312 0)"/>
     <use xlink:href="#DejaVuSans-72" transform="translate(2162.654297 0)"/>
     <use xlink:href="#DejaVuSans-65" transform="translate(2201.517578 0)"/>
     <use xlink:href="#DejaVuSans-6c" transform="translate(2263.041016 0)"/>
     <use xlink:href="#DejaVuSans-65" transform="translate(2290.824219 0)"/>
     <use xlink:href="#DejaVuSans-76" transform="translate(2352.347656 0)"/>
     <use xlink:href="#DejaVuSans-61" transform="translate(2411.527344 0)"/>
     <use xlink:href="#DejaVuSans-6e" transform="translate(2472.806641 0)"/>
     <use xlink:href="#DejaVuSans-74" transform="translate(2536.185547 0)"/>
     <use xlink:href="#DejaVuSans-20" transform="translate(2575.394531 0)"/>
     <use xlink:href="#DejaVuSans-64" transform="translate(2607.181641 0)"/>
     <use xlink:href="#DejaVuSans-65" transform="translate(2670.658203 0)"/>
     <use xlink:href="#DejaVuSans-70" transform="translate(2732.181641 0)"/>
     <use xlink:href="#DejaVuSans-6c" transform="translate(2795.658203 0)"/>
     <use xlink:href="#DejaVuSans-6f" transform="translate(2823.441406 0)"/>
     <use xlink:href="#DejaVuSans-79" transform="translate(2884.623047 0)"/>
     <use xlink:href="#DejaVuSans-6d" transform="translate(2943.802734 0)"/>
     <use xlink:href="#DejaVuSans-65" transform="translate(3041.214844 0)"/>
     <use xlink:href="#DejaVuSans-6e" transform="translate(3102.738281 0)"/>
     <use xlink:href="#DejaVuSans-74" transform="translate(3166.117188 0)"/>
     <use xlink:href="#DejaVuSans-20" transform="translate(3205.326172 0)"/>
     <use xlink:href="#DejaVuSans-69" transform="translate(3237.113281 0)"/>
     <use xlink:href="#DejaVuSans-64" transform="translate(3264.896484 0)"/>
     <use xlink:href="#DejaVuSans-65" transform="translate(3328.373047 0)"/>
     <use xlink:href="#DejaVuSans-6e" transform="translate(3389.896484 0)"/>
     <use xlink:href="#DejaVuSans-74" transform="translate(3453.275391 0)"/>
     <use xlink:href="#DejaVuSans-69" transform="translate(3492.484375 0)"/>
     <use xlink:href="#DejaVuSans-74" transform="translate(3520.267578 0)"/>
     <use xlink:href="#DejaVuSans-79" transform="translate(3559.476562 0)"/>
     <use xlink:href="#DejaVuSans-20" transform="translate(3618.65625 0)"/>
     <use xlink:href="#DejaVuSans-69" transform="translate(3650.443359 0)"/>
     <use xlink:href="#DejaVuSans-73" transform="translate(3678.226562 0)"/>
     <use xlink:href="#DejaVuSans-20" transform="translate(3730.326172 0)"/>
     <use xlink:href="#DejaVuSans-74" transform="translate(3762.113281 0)"/>
     <use xlink:href="#DejaVuSans-68" transform="translate(3801.322266 0)"/>
     <use xlink:href="#DejaVuSans-65" transform="translate(3864.701172 0)"/>
     <use xlink:href="#DejaVuSans-20" transform="translate(3926.224609 0)"/>
     <use xlink:href="#DejaVuSans-76" transform="translate(3958.011719 0)"/>
     <use xlink:href="#DejaVuSans-65" transform="translate(4017.191406 0)"/>
     <use xlink:href="#DejaVuSans-72" transform="translate(4078.714844 0)"/>
     <use xlink:href="#DejaVuSans-69" transform="translate(4119.828125 0)"/>
     <use xlink:href="#DejaVuSans-66" transform="translate(4147.611328 0)"/>
     <use xlink:href="#DejaVuSans-69" transform="translate(4182.816406 0)"/>
     <use xlink:href="#DejaVuSans-65" transform="translate(4210.599609 0)"/>
     <use xlink:href="#DejaVuSans-64" transform="translate(4272.123047 0)"/>
     <use xlink:href="#DejaVuSans-20" transform="translate(4335.599609 0)"/>
     <use xlink:href="#DejaVuSans-63" transform="translate(4367.386719 0)"/>
     <use xlink:href="#DejaVuSans-6c" transform="translate(4422.367188 0)"/>
     <use xlink:href="#DejaVuSans-6f" transform="translate(4450.150391 0)"/>
     <use xlink:href="#DejaVuSans-73" transform="translate(4511.332031 0)"/>
     <use xlink:href="#DejaVuSans-75" transform="translate(4563.431641 0)"/>
     <use xlink:href="#DejaVuSans-72" transform="translate(4626.810547 0)"/>
     <use xlink:href="#DejaVuSans-65" transform="translate(4665.673828 0)"/>
     <use xlink:href="#DejaVuSans-20" transform="translate(4727.197266 0)"/>
     <use xlink:href="#DejaVuSans-62" transform="translate(4758.984375 0)"/>
     <use xlink:href="#DejaVuSans-65" transform="translate(4822.460938 0)"/>
     <use xlink:href="#DejaVuSans-6e" transform="translate(4883.984375 0)"/>
     <use xlink:href="#DejaVuSans-65" transform="translate(4947.363281 0)"/>
     <use xlink:href="#DejaVuSans-61" transform="translate(5008.886719 0)"/>
     <use xlink:href="#DejaVuSans-74" transform="translate(5070.166016 0)"/>
     <use xlink:href="#DejaVuSans-68" transform="translate(5109.375 0)"/>
     <use xlink:href="#DejaVuSans-20" transform="translate(5172.753906 0)"/>
     <use xlink:href="#DejaVuSans-69" transform="translate(5204.541016 0)"/>
     <use xlink:href="#DejaVuSans-74" transform="translate(5232.324219 0)"/>
     <use xlink:href="#DejaVuSans-2e" transform="translate(5271.533203 0)"/>
    </g>
   </g>
  </g>
 </g>
 <defs>
  <clipPath id="p954732678e">
   <rect x="7.2" y="7.2" width="669.6" height="388.08"/>
  </clipPath>
 </defs>
</svg>
