<svg xmlns='http://www.w3.org/2000/svg' viewBox='0 0 900 560' width='900' height='560' font-family="ui-sans-serif, system-ui, -apple-system, 'Segoe UI', Roboto, Helvetica, Arial, sans-serif" text-rendering='geometricPrecision'>
<rect width="900" height="560" fill="#F2EFE7"/>
<text x="450.0" y="34" fill="#11110F" font-size="18" font-weight="700" text-anchor="middle" style="">QUANTIZATION BREAK-EVEN SURFACE</text>
<text x="450.0" y="56" fill="#5A5953" font-size="12" font-weight="400" text-anchor="middle" style="">DERIVED RESULT — q_q/q_h &gt; r_G/g; threshold below which quantization loses on cost-per-successful-task</text>
<line x1="90" y1="100" x2="840" y2="100" stroke="#11110F" stroke-width="1.2" opacity="1"/>
<line x1="90" y1="100" x2="90" y2="460" stroke="#11110F" stroke-width="1.2" opacity="1"/>
<line x1="840" y1="100" x2="840" y2="460" stroke="#11110F" stroke-width="1.2" opacity="1"/>
<line x1="90" y1="460" x2="840" y2="460" stroke="#11110F" stroke-width="1.2" opacity="1"/>
<line x1="352.5" y1="100" x2="352.5" y2="460" stroke="#C9C3B7" stroke-width="0.6" opacity="1"/>
<text x="352.5" y="478" fill="#5A5953" font-size="11" font-weight="400" text-anchor="middle" style="">0.7×</text>
<line x1="390.0" y1="100" x2="390.0" y2="460" stroke="#C9C3B7" stroke-width="0.6" opacity="1"/>
<text x="390.0" y="478" fill="#5A5953" font-size="11" font-weight="400" text-anchor="middle" style="">0.8×</text>
<line x1="427.5" y1="100" x2="427.5" y2="460" stroke="#C9C3B7" stroke-width="0.6" opacity="1"/>
<text x="427.5" y="478" fill="#5A5953" font-size="11" font-weight="400" text-anchor="middle" style="">0.9×</text>
<line x1="465.0" y1="100" x2="465.0" y2="460" stroke="#C9C3B7" stroke-width="0.6" opacity="1"/>
<text x="465.0" y="478" fill="#5A5953" font-size="11" font-weight="400" text-anchor="middle" style="">1.0×</text>
<line x1="502.50000000000006" y1="100" x2="502.50000000000006" y2="460" stroke="#C9C3B7" stroke-width="0.6" opacity="1"/>
<text x="502.50000000000006" y="478" fill="#5A5953" font-size="11" font-weight="400" text-anchor="middle" style="">1.1×</text>
<line x1="540.0" y1="100" x2="540.0" y2="460" stroke="#C9C3B7" stroke-width="0.6" opacity="1"/>
<text x="540.0" y="478" fill="#5A5953" font-size="11" font-weight="400" text-anchor="middle" style="">1.2×</text>
<line x1="577.5" y1="100" x2="577.5" y2="460" stroke="#C9C3B7" stroke-width="0.6" opacity="1"/>
<text x="577.5" y="478" fill="#5A5953" font-size="11" font-weight="400" text-anchor="middle" style="">1.3×</text>
<line x1="615.0" y1="100" x2="615.0" y2="460" stroke="#C9C3B7" stroke-width="0.6" opacity="1"/>
<text x="615.0" y="478" fill="#5A5953" font-size="11" font-weight="400" text-anchor="middle" style="">1.4×</text>
<line x1="652.5" y1="100" x2="652.5" y2="460" stroke="#C9C3B7" stroke-width="0.6" opacity="1"/>
<text x="652.5" y="478" fill="#5A5953" font-size="11" font-weight="400" text-anchor="middle" style="">1.5×</text>
<line x1="690.0" y1="100" x2="690.0" y2="460" stroke="#C9C3B7" stroke-width="0.6" opacity="1"/>
<text x="690.0" y="478" fill="#5A5953" font-size="11" font-weight="400" text-anchor="middle" style="">1.6×</text>
<line x1="727.5" y1="100" x2="727.5" y2="460" stroke="#C9C3B7" stroke-width="0.6" opacity="1"/>
<text x="727.5" y="478" fill="#5A5953" font-size="11" font-weight="400" text-anchor="middle" style="">1.7×</text>
<line x1="765.0" y1="100" x2="765.0" y2="460" stroke="#C9C3B7" stroke-width="0.6" opacity="1"/>
<text x="765.0" y="478" fill="#5A5953" font-size="11" font-weight="400" text-anchor="middle" style="">1.8×</text>
<line x1="802.5" y1="100" x2="802.5" y2="460" stroke="#C9C3B7" stroke-width="0.6" opacity="1"/>
<text x="802.5" y="478" fill="#5A5953" font-size="11" font-weight="400" text-anchor="middle" style="">1.9×</text>
<line x1="840.0" y1="100" x2="840.0" y2="460" stroke="#C9C3B7" stroke-width="0.6" opacity="1"/>
<text x="840.0" y="478" fill="#5A5953" font-size="11" font-weight="400" text-anchor="middle" style="">2.0×</text>
<line x1="90" y1="403.75" x2="840" y2="403.75" stroke="#C9C3B7" stroke-width="0.7" opacity="1"/>
<text x="80" y="407.75" fill="#5A5953" font-size="11" font-weight="400" text-anchor="end" style="">0.25</text>
<line x1="90" y1="347.5" x2="840" y2="347.5" stroke="#C9C3B7" stroke-width="0.7" opacity="1"/>
<text x="80" y="351.5" fill="#5A5953" font-size="11" font-weight="400" text-anchor="end" style="">0.50</text>
<line x1="90" y1="291.25" x2="840" y2="291.25" stroke="#C9C3B7" stroke-width="0.7" opacity="1"/>
<text x="80" y="295.25" fill="#5A5953" font-size="11" font-weight="400" text-anchor="end" style="">0.75</text>
<line x1="90" y1="235.0" x2="840" y2="235.0" stroke="#C9C3B7" stroke-width="0.7" opacity="1"/>
<text x="80" y="239.0" fill="#5A5953" font-size="11" font-weight="400" text-anchor="end" style="">1.00</text>
<line x1="90" y1="178.75" x2="840" y2="178.75" stroke="#C9C3B7" stroke-width="0.7" opacity="1"/>
<text x="80" y="182.75" fill="#5A5953" font-size="11" font-weight="400" text-anchor="end" style="">1.25</text>
<line x1="90" y1="122.5" x2="840" y2="122.5" stroke="#C9C3B7" stroke-width="0.7" opacity="1"/>
<text x="80" y="126.5" fill="#5A5953" font-size="11" font-weight="400" text-anchor="end" style="">1.50</text>
<text x="465.0" y="504" fill="#11110F" font-size="13" font-weight="600" text-anchor="middle" style="">Quantized throughput gain  g = R_q / R_h</text>
<text x="28" y="280.0" fill="#11110F" font-size="13" font-weight="600" text-anchor="middle" style="writing-mode:tb;transform:rotate(180deg);">Minimum quality ratio  q_q / q_h</text>
<line x1="465.0" y1="100" x2="465.0" y2="460" stroke="#5A5953" stroke-width="1.0" stroke-dasharray="3,3" opacity="1"/>
<text x="469.0" y="114" fill="#5A5953" font-size="10.5" font-weight="400" text-anchor="start" style="">no throughput gain</text>
<line x1="90" y1="235.0" x2="840" y2="235.0" stroke="#5A5953" stroke-width="1.0" stroke-dasharray="3,3" opacity="1"/>
<text x="832" y="229.0" fill="#5A5953" font-size="10.5" font-weight="400" text-anchor="end" style="">q_q = q_h</text>
<path d="M352.5,138.6 L352.5,138.6 L371.2,160.0 L390.0,178.8 L408.8,195.3 L427.5,210.0 L446.2,223.2 L465.0,235.0 L483.8,245.7 L502.5,255.5 L521.2,264.3 L540.0,272.5 L558.8,280.0 L577.5,286.9 L596.2,293.3 L615.0,299.3 L633.8,304.8 L652.5,310.0 L671.2,314.8 L690.0,319.4 L708.8,323.6 L727.5,327.6 L746.2,331.4 L765.0,335.0 L783.8,338.4 L802.5,341.6 L821.2,344.6 L840.0,347.5" fill="none" stroke="#5A5953" stroke-width="2.6"/>
<path d="M352.5,299.3 L352.5,299.3 L371.2,310.0 L390.0,319.4 L408.8,327.6 L427.5,335.0 L446.2,341.6 L465.0,347.5 L483.8,352.9 L502.5,357.7 L521.2,362.2 L540.0,366.2 L558.8,370.0 L577.5,373.5 L596.2,376.7 L615.0,379.6 L633.8,382.4 L652.5,385.0 L671.2,387.4 L690.0,389.7 L708.8,391.8 L727.5,393.8 L746.2,395.7 L765.0,397.5 L783.8,399.2 L802.5,400.8 L821.2,402.3 L840.0,403.8" fill="none" stroke="#2F5BFF" stroke-width="2.8"/>
<circle cx="502.5" cy="255.5" r="5" fill="#11110F"/>
<text x="510.50000000000006" y="259.475" fill="#11110F" font-size="10.5" font-weight="600" text-anchor="start" style="">Scenario B: g=1.10, r_G=1</text>
<text x="510.50000000000006" y="273.475" fill="#11110F" font-size="10.5" font-weight="400" text-anchor="start" style="">→ q_q/q_h &gt; 0.909</text>
<circle cx="362.6" cy="305.4" r="5" fill="#2F5BFF"/>
<text x="370.625" y="283.425" fill="#2F5BFF" font-size="10.5" font-weight="600" text-anchor="start" style="">Scenario A: g=0.727, r_G=0.5</text>
<text x="370.625" y="297.425" fill="#2F5BFF" font-size="10.5" font-weight="400" text-anchor="start" style="">→ q_q/q_h &gt; 0.687</text>
<line x1="150" y1="496" x2="172" y2="496" stroke="#5A5953" stroke-width="2.6" opacity="1"/>
<text x="180" y="500" fill="#11110F" font-size="11.5" font-weight="400" text-anchor="start" style="">same GPU cost (r_G = 1)</text>
<line x1="380" y1="496" x2="402" y2="496" stroke="#2F5BFF" stroke-width="2.8" opacity="1"/>
<text x="410" y="500" fill="#11110F" font-size="11.5" font-weight="400" text-anchor="start" style="">half GPU cost (r_G = 0.5) — selected boundary</text>
<text x="90" y="540" fill="#5A5953" font-size="10.5" font-weight="400" text-anchor="start" style="">Derived from C_q/C_h = r_G/g and the quality condition C_q/q_q &lt; C_h/q_h. Scenarios A and B plotted at HOUSE throughput ratios.</text>
</svg>